<?xml version="1.0" encoding="UTF-8"?>
<svg id="Calque_2" data-name="Calque 2" xmlns="http://www.w3.org/2000/svg" viewBox="0 0 1237.04 604.04">
  <defs>
    <style>
      .cls-1 {
        fill: #c1111f;
      }
    </style>
  </defs>
  <g id="Calque_1-2" data-name="Calque 1">
    <g>
      <path class="cls-1" d="M246.53,441.98l-40.42,2.17,9.31,93.09c6.22,1.02,24.22,4.67,36.02,14.12l-5.36,6.7c-12.24-9.8-33.69-12.6-33.91-12.63l.1-.78c-50.43-.02-47.15,57.79-47.15,57.79,90.39,5.16,119.75-12.84,119.75-12.84,2.41-11.38-12.7-120.93-16.54-148.3-7.27.34-14.54.56-21.8.66Z"/>
      <path class="cls-1" d="M240.47,321.55c-5.8.43-10.16,5.48-9.74,11.28.43,5.8,5.48,10.16,11.28,9.74,5.8-.43,10.16-5.48,9.74-11.28-.43-5.8-5.48-10.16-11.28-9.74Z"/>
      <path class="cls-1" d="M310.21,316.43c-5.8.43-10.16,5.48-9.74,11.28.43,5.8,5.48,10.16,11.28,9.74,5.8-.43,10.16-5.48,9.74-11.28-.43-5.8-5.48-10.16-11.28-9.74Z"/>
      <path class="cls-1" d="M109.55,178.23l.36.18c9.74,4.77,20.45,6.79,31.2,5.89,2.31-.2,4.63-.53,6.89-.99,2.32-.47,4.59,1.02,5.06,3.35.47,2.32-1.02,4.59-3.35,5.06-2.59.53-5.24.91-7.89,1.13-.48.04-.97.08-1.45.11-9.15.58-18.23-.7-26.81-3.73l15.03,69.32c.55-.16,1.11-.32,1.66-.48,43.18-12.68,87.56-20.47,132.87-23.34,32.17-2.03,64.79-1.58,97.79,1.35,16.83,1.49,33.75,3.62,50.77,6.4l.57-46.94c-.09,0-.18.02-.27.03-.48.04-.96.08-1.44.11-17.29,1.09-34.28-4.45-48.02-15.68-1.83-1.5-2.11-4.2-.6-6.04,1.5-1.83,4.2-2.11,6.04-.6,12.38,10.13,27.77,14.98,43.3,13.67,8.83-.75,17.19-3.39,24.86-7.85.5-.29,1.03-.46,1.57-.54,19.98-12.26,32.6-35.92,30.72-61.55-2.64-35.97-32.35-63.24-66.37-61.09-.2.01-.4.03-.6.04-12.52.92-24.23,5.69-33.98,13.82.7,3.23,1.22,6.54,1.5,9.93,2.07,24.5-7.54,48.33-25.72,63.75-.73.62-1.61.95-2.5,1.01-1.31.08-2.63-.43-3.55-1.51-1.53-1.81-1.31-4.52.5-6.05,16.06-13.63,24.56-34.74,22.72-56.48-1.85-21.92-13.79-40.48-30.53-51-10.4-6.37-22.55-9.65-35.15-8.86-.2.01-.4.03-.6.04-6.63.49-13.02,2.07-19.08,4.67,6.55,10.28,10.59,22.16,11.65,34.78.54,6.33.3,12.69-.7,18.9-3.37,20.93-15.22,39.3-32.5,50.39-.64.41-1.34.63-2.04.67-1.5.1-3.02-.61-3.89-1.97-1.28-1.99-.7-4.65,1.3-5.93,15.23-9.78,25.68-26.01,28.66-44.53,0,0,0,0,0,0,.89-5.52,1.1-11.17.62-16.81-1.48-17.49-9.33-33.37-22.11-44.73-1.13-1.01-2.3-1.95-3.48-2.86-6.81-5.24-14.43-8.93-22.46-10.93-6.27-1.56-12.78-2.12-19.34-1.57l-.06-.76c-.91.03-1.82.05-2.73.11-26.9,1.97-49.68,19.92-59.17,46.15,30.45,6.26,54.39,33.01,57.24,66.76.2,2.36-1.55,4.44-3.91,4.64-.03,0-.06,0-.09,0-2.32.15-4.35-1.59-4.54-3.92-2.95-34.91-31.22-61.38-64.36-60.27-.52.02-1.02-.07-1.49-.23-.16.01-.31.01-.46.02-16.56,1.22-31.64,9.16-42.47,22.36-10.88,13.27-16.16,30.25-14.87,47.82,1.73,23.57,15.42,44.56,35.74,54.78Z"/>
      <path class="cls-1" d="M95.79,343.54c-5.45-3.65-6.84-13.58-7.09-20.83-.17-5.02,1.36-9.94,4.32-13.99,1.91-2.62,3.83-5.24,5.74-7.87,3.94-5.4,7.88-10.8,11.82-16.19,2.23-3.06,4.38-6.18,6.6-9.24,2-2.75,4.59-5.31,5.69-8.58,1.8-5.34,2.51-12.83-2.35-16.81-1-.82-2.21-1.33-3.34-1.94-1-.54-2.19-.82-3.29-1.08,0,0-11.98-3.04-25.34,20.02-.01-.15-.02-.24-.02-.24l-4.12-46.53s-4.16-10.47-16.06-8.19c0,0-10.64,1.83-9.68,11.72l2.73,43.44c0,.06-.09.08-.1.02l-10.7-44.97s-2.65-4.65-9.93-5.9c-4.43-.76-9.03.44-12.28,3.53-1.61,1.53-2.85,3.5-2.59,5.83.67,5.92,9.12,57.17,9.12,57.17l-14.74-15.53c-4.72-4.98-12.58-5.61-17.82-1.18-.2.17-.4.34-.6.53,0,0-2.99,5.49-1.15,9.92,1.85,4.43,29.17,40.01,29.17,40.01l5.3,17.99s14.02,71.33,26.27,80.27c9.57,6.98,15.17,12.54,31.58,5.54,9.33-3.98,17.57-10.15,24.2-17.83l32.42-32.76-11.78-68.33c-3.79,6.39-30.19,49.87-41.96,42Z"/>
      <path class="cls-1" d="M1102.15,498.62c4.17,0,6.01-10.05,6.01-13.11,0-8.09-4.05-8.58-10.91-9.07-22.91-2.08-45.58,5.15-45.58,32.72s19.48,33.94,43.62,33.94c6.99,0,12.99.37,12.99-8.21,0-3.31-.74-6-1.1-9.19-.49-3.92-2.33-7.72-6.74-7.72-9.56,0-25.24,4.04-25.24-10.42s18.38-8.94,26.96-8.94Z"/>
      <path class="cls-1" d="M1130.82,457.69h-7.84c-6,0-8.33,1.84-8.21,7.6.61,24.63,1.1,49.87,1.59,74.5.12,3.8,9.68,3.55,12.38,3.55,3.31,0,9.8-1.1,9.68-5.27,0-6.13-.25-16.67.24-25.73.37-6.49,2.45-15.93,9.44-15.93,4.78,0,6.25,2.21,6.25,9.93,0,10.91-.61,27.2-.74,31,0,4.04,3.31,6,9.31,6h7.72c5.88,0,8.33-3.31,8.09-7.35,0,0-.24-5.52-.49-13.48-.86-30.63-2.21-44.48-24.63-45.46-5.64-.25-9.8.61-13.85,3.55.12-6.49.37-11.89.37-18.14,0-4.17-6.37-4.78-9.31-4.78Z"/>
      <path class="cls-1" d="M1030.68,542.67c6.88,0,12.45-5.57,12.45-12.45s-5.57-12.45-12.45-12.45-12.45,5.57-12.45,12.45,5.57,12.45,12.45,12.45Z"/>
      <path class="cls-1" d="M446.26,412.23s16.97.3,22.62.74c17.41,1.34,44.06,1.34,44.06,1.34,2.83-.15,4.17-4.17,4.17-11.46v-9.38c0-7.14-2.38-10.12-5.06-9.97,0,0-34.53,1.64-38.85,1.79.89-23.07,1.93-45.99,2.08-69.06-.15-3.72-4.32-5.51-11.61-5.51h-9.38c-7.29,0-10.27,2.98-10.12,6.7,0,0,1.79,57,1.94,68.62h-1.49c-4.47,0-4.76,26.2,1.64,26.2Z"/>
      <path class="cls-1" d="M593.01,312.06c-12.65-.15-19.95-.3-32.6-.74-13.69-.45-21.28-.45-34.98-.74-4.61.3-4.91,21.28-.45,23.52.74,19.94,1.79,37.36,2.08,56.26-.45,3.57-.6,7.14-.6,10.72,0,4.76,1.19,11.16,4.32,11.16,1.19,0,16.07.3,61.32,2.08,2.53-.15,4.02-4.17,3.87-11.46l-.15-9.38c-.15-7.14-1.93-9.97-4.46-9.97-16.07.15-22.18,1.34-38.25,2.08.15-3.27.45-8.33.45-11.61,13.69,1.04,30.07,1.04,30.07,1.04,2.23,0,3.27-3.13,3.27-8.48v-7.14c0-5.36-1.79-7.59-3.87-7.44,0,0-24.86,1.19-28.73,1.34.3-7.59.3-11.76,0-16.82,13.69,1.19,24.56,2.38,38.4,3.42,2.83.3,4.17-3.57,4.46-10.12l.3-8.48c.3-6.4-1.79-9.08-4.47-9.23Z"/>
      <path class="cls-1" d="M688.71,310.27c-10.42,0-26.34,2.98-36.02,6.55-3.57,1.34-5.36,3.42-5.36,7.29,0,3.27,3.13,13.54,4.76,15.93-.6,23.07-2.38,46.14-2.38,69.21,0,4.62,8.34,5.06,11.46,5.06h9.38c8.48,0,9.97-1.94,9.97-9.67,0-5.06-.15-10.12-.3-15.18,31.11-5.66,46.88-14.74,47.33-45.7.3-22.47-9.67-33.49-38.85-33.49ZM679.04,363.71c-.15-8.19-.3-16.52-.3-24.71,10.87-1.78,22.92-5.51,22.92,5.66,0,14.14-9.08,17.56-22.62,19.05Z"/>
      <path class="cls-1" d="M737.08,412.23s16.97.3,22.62.74c17.41,1.34,44.06,1.34,44.06,1.34,2.83-.15,4.17-4.17,4.17-11.46v-9.38c0-7.14-2.38-10.12-5.06-9.97,0,0-34.53,1.64-38.85,1.79.89-23.07,1.93-45.99,2.08-69.06-.15-3.72-4.32-5.51-11.61-5.51h-9.38c-7.29,0-10.27,2.98-10.12,6.7,0,0,1.79,57,1.94,68.62h-1.49c-4.47,0-4.76,26.2,1.64,26.2Z"/>
      <path class="cls-1" d="M838.59,314.89c-9.82,14.59-16.22,35.28-20.24,52.84-2.23.15-3.72.15-3.72.15-2.68.15-3.87,3.27-3.87,8.63l.15,7c0,5.21,2.23,7.44,4.76,7.44-.3,3.87-.74,9.23-1.04,13.4-.3,7.29,7.29,8.78,14.59,9.08,4.61.3,12.05-2.98,11.91-11.16,0,0,.45-5.21,1.34-12.5,6.4-.45,16.22-.74,19.05-1.04.15,1.34.15,2.53.3,3.87l.89,7.74c.15,1.34.15,2.53.3,3.87.6,7.14,5.21,10.27,12.35,9.53l9.38-1.04c11.16-1.19,8.78-12.5,8.19-20.24-2.53-24.86-6.99-61.02-24.71-78.89-5.21-5.21-25.45-4.76-29.62,1.34ZM855.86,368.17l-6.85-.3h-3.42c.74-4.32,5.95-24.41,7.59-24.41,2.23,0,5.66,21.88,6.1,24.71h-3.42Z"/>
      <path class="cls-1" d="M971.2,317.12c-.15-6.1-2.83-8.34-6.1-8.34,0,0-16.07.6-72.49,5.06-4.91.3-5.06,24.56,2.68,23.96,0,0,17.71-.45,22.03-.45-.74,23.52-1.94,47.93-1.94,71.59,0,3.72,2.98,5.36,10.12,5.36h11.61c7.14,0,8.78-2.98,8.63-6.55,0,0-1.94-58.49-2.08-70.4,13.54-.15,23.52-.6,23.52-.6,3.13-.3,4.47-3.87,4.32-9.97l-.3-9.67Z"/>
      <path class="cls-1" d="M473.5,543.04c38.4-2.38,54.48-17.56,54.48-52.54,0-43.16-19.95-56.41-78.59-48.22-5.36.74-8.63,3.87-8.63,9.23,0,3.57.89,7.29,1.49,10.72.74,4.17,3.87,7.29,5.21,7.44-.89,23.22-2.38,42.87-2.38,66.08,0,8.93,21.43,7.74,28.43,7.29ZM500.73,491.25c0,13.25-9.08,22.62-25,22.18-.6-15.93-1.49-29.17-1.49-45.1,17.56-2.23,26.49-.74,26.49,22.92Z"/>
      <path class="cls-1" d="M574.55,514.91c-6.7.15-11.61-4.32-11.61-11.16,0-16.22-.45-37.96-.74-54.03-.45-11.01-27.83-8.19-27.68-.15v29.77c0,7.44-.3,25.75.59,34.98,2.08,20.24,18.75,28.58,39,28.58,19.65.15,35.42-9.08,39-28.73,2.83-15.48.74-55.96.74-62.06-.15-7.59-4.17-11.16-11.46-11.16l-7.89.15c-7.14.15-10.12,6.1-9.97,13.69,0,0,.3,10.42.3,25.3,0,6.7.3,16.67.3,25,0,6.25-2.53,9.68-10.57,9.82Z"/>
      <path class="cls-1" d="M676.06,457.16c0,2.83.45,7.89,4.17,7.89,9.23,0,18.61-1.19,27.83-1.19,0,7.44.89,42.12-3.72,46.73-2.23,2.23-4.76,2.83-7.74,2.83-6.7,0-15.03-4.46-17.56-4.46-5.65,0-15.33,17.71-15.33,21.88,0,9.97,23.07,13.1,32.45,12.95,20.99-.3,36.17-14.44,38.4-35.57,1.34-12.2.15-32.74-.3-45.1,5.06.15,4.02-8.63,4.02-12.06,0-2.53-.45-8.93-3.87-8.93-18.31,0-36.62-1.64-55.07-1.64-4.47,0-3.28,14.88-3.28,16.67Z"/>
      <path class="cls-1" d="M784.41,440.49c-30.51,0-40.93,25.9-40.93,52.09,0,27.98,16.82,50.16,46.14,50.16,35.13,0,44.95-26.79,44.95-57.15,0-27.39-13.54-46.44-42.57-46.44-2.53,0-5.36,1.34-7.59,1.34ZM805.1,490.36c0,11.01-.89,23.81-14.88,23.81-15.48,0-19.05-11.31-19.05-24.71,0-8.04,2.68-22.48,17.26-22.48,11.46,0,16.67,9.38,16.67,23.37Z"/>
      <path class="cls-1" d="M881.9,514.91c-6.7.15-11.61-4.32-11.61-11.16,0-16.22-.45-37.96-.74-54.03-.45-11.01-27.83-8.19-27.68-.15v29.77c0,7.44-.3,25.75.6,34.98,2.08,20.24,18.75,28.58,38.99,28.58,19.65.15,35.42-9.08,38.99-28.73,2.83-15.48.74-55.96.74-62.06-.15-7.59-4.17-11.16-11.46-11.16l-7.89.15c-7.14.15-10.12,6.1-9.97,13.69,0,0,.3,10.42.3,25.3,0,6.7.3,16.67.3,25,0,6.25-2.53,9.68-10.57,9.82Z"/>
      <path class="cls-1" d="M1008.86,472.94c.3-22.47-9.67-33.49-38.85-33.49-10.57,0-26.2,2.98-36.02,6.55-3.57,1.34-5.36,3.42-5.36,7.29,0,3.27,3.13,13.54,4.76,15.93-.6,23.07-2.38,46.14-2.38,69.21,0,4.62,8.33,5.06,11.46,5.06h9.38c9.53,0,9.97-2.68,9.97-10.72,0-3.72,0-7.59-.15-11.46,4.91,3.28,26.64,20.39,35.57,24.11,7.14,2.98,13.69-15.33,15.03-22.62.59-3.42-.74-4.47-4.62-5.81-8.78-3.27-14.44-4.61-23.22-8.19,11.91-4.02,24.11-9.97,24.41-35.87ZM960.34,492.89c-.15-8.19-.3-16.52-.3-24.71,5.95-1.19,22.92-5.51,22.92,5.66,0,14.14-9.08,17.56-22.62,19.05Z"/>
      <path class="cls-1" d="M1236.96,533.22v-.2c-.07-1.43-.26-6.06-.44-12.14-.59-21.08-1.64-38.57-9.1-55.61-5.93-13.52-17.94-31.23-41.77-40.5-12.39-16.17-32.15-25.37-54.81-25.37h-7.84c-19.19,0-35.88,6.69-48.27,19.36-.01.01-.02.03-.04.04-6.9.88-13.53,2.37-19.84,4.44-3.35-5.67-7.37-10.89-12.01-15.6-10.52-10.66-23.77-18.18-39.48-22.4-.02-.64-.04-1.29-.06-1.94,17.29-12.58,27.08-33.78,26.49-58.09l-.3-9.68c-1.12-42.24-34-65.03-64.37-65.03l-2.16.04c-.71.03-18,.7-74.68,5.18-1.63.12-3.26.31-4.88.57-8.87-3.07-18.58-4.63-28.9-4.63-12.58,0-34.44,2.43-51.98,17.06-12.41-10.58-29.04-16.29-48.01-16.29h-9.38c-8.18,0-15.99,1.19-23.26,3.53-9.99-2.67-20.88-3.98-33.15-3.98-17.16,0-39.85,4.12-56.5,10.26-1.63.61-3.23,1.28-4.81,2.01-9.2-6.2-19.83-9.77-31.13-10.4l-2.58-.09c-4.01-.05-7.45-.09-10.77-.15.5,3.3.77,6.79.77,10.44,0,4.01-.33,7.82-.93,11.4,3.29.06,6.72.1,10.68.15l1.6.05c9.02.5,17.36,3.88,24.12,9.75l6.01,5.22,6.81-4.12c2.48-1.5,5.14-2.79,7.84-3.81,13.96-5.15,34.51-8.89,48.88-8.89,11.54,0,21.45,1.32,30.29,4.03l3.6,1.11,3.52-1.35c5.75-2.21,12.14-3.34,18.99-3.34h9.38c21.61,0,33.3,9.11,39.31,16.75l8.4,10.69,8.63-10.51c12.64-15.41,32.78-17.71,43.66-17.71,8.63,0,16.91,1.46,23.93,4.23l3.07,1.21,3.23-.69c1.71-.37,3.45-.62,5.23-.75,56.28-4.45,73.13-5.11,73.81-5.13l1.35-.02c20.06,0,41.78,15.34,42.54,43.81l.3,9.66c.46,18.63-7.45,34.4-21.16,42.19l-5.73,3.25.21,6.58c.19,6.03.37,11.79.53,16.54l.28,8.8,8.66,1.59c15.05,2.77,27.35,8.9,36.55,18.22,5.19,5.26,9.32,11.42,12.26,18.3l4.39,10.26,10.17-4.61c8.08-3.67,17.12-5.98,26.85-6.85l4.47-.4,2.89-3.43c.64-.76,1.32-1.5,2.01-2.21,8.19-8.37,19.48-12.79,32.66-12.79h7.84c16.65,0,30.82,6.84,38.87,18.75l2.06,3.05,3.48,1.18c14.89,5.06,25.72,15.09,32.17,29.82,5.88,13.43,6.75,28.78,7.28,47.48.19,6.23.39,10.95.45,12.4v.34c.62,11.97-3.47,23.27-11.49,31.8-8.34,8.86-20.06,13.74-32.99,13.74h-7.72c-5.05,0-9.88-.62-14.36-1.85l-2.86-.78-2.86.77c-5.73,1.54-10.83,1.86-14.14,1.86h-1.1c-5.01,0-9.75-.45-14.08-1.34l-2.13-.44-2.13.41c-3.87.75-8.03,1.12-12.34,1.12h-1.66c-13.36,0-25.36-1.83-35.67-5.45l-4.21-1.47-4.04,1.89c-6.5,3.05-13.45,4.59-20.66,4.59-3.13,0-6.26-.3-9.32-.89l-3.31-.64-3.1,1.34c-5.04,2.18-10.46,3.28-16.13,3.28-5.36,0-10.61-1.05-15.59-3.13-1.2-.5-2.48-1.09-3.79-1.74l-4.2-2.1-4.41,1.61c-5.62,2.05-12,3.09-18.98,3.09h-9.38c-8.97,0-17.03-1.63-23.94-4.84l-4.03-1.87-4.19,1.47c-8.77,3.08-18.33,4.65-28.35,4.65h-.57c-15.3,0-29.59-3.37-41.32-9.75l-5.16-2.81-5.19,2.76c-15.77,8.39-31.89,9.65-40.09,9.65-15.24,0-29.27-3.63-41.69-10.78l-5.72-3.3-5.58,3.54c-11.77,7.47-25.22,11.37-39.9,11.58h-1.22c-4.66.01-16.92-.41-30.03-4.35-10.17-3.05-18.51-7.7-24.79-13.81l-7.15-6.97-7.58,6.5c-13.55,11.61-31.32,17.75-51.34,17.75h-.57c-15.92,0-30.67-3.64-42.66-10.51l-5.03-2.89-5.21,2.56c-12.56,6.16-27.83,9.83-45.4,10.92-2.79.18-6.53.38-10.81.38-27.83,0-41.45-10.38-47.99-19.1-7.51-10.02-8.32-20.79-8.32-24.96,0-16.75.71-31.26,1.46-46.66l.38-7.86-1-2.32c-1.44-3.36-2.49-6.82-3.1-10.26-.09-.49-.16-.88-.23-1.26l-.13-.69c-.72-3.78-1.7-8.96-1.7-15.2,0-7.17,1.53-13.96,4.54-20.17l2.11-4.35-1.81-4.49c-.59-1.46-1.11-2.97-1.56-4.49-2.21-7.48-2.68-15.05-2.68-20.09,0-8.58,1.24-16.23,3.7-22.74l.76-2.01-.06-2.14c-.46-17.16-1.23-42.07-1.54-51.99v-.44c-.41-11.44,3.72-22.27,11.62-30.49,6.06-6.31,17.04-13.84,34.92-13.84h9.38c1.12,0,2.23.03,3.32.08-9.05-4.28-15.06-12.37-15.17-21.88-22.45.64-37.29,9.98-46.27,18.58l.3-19.63c-15.53-3.08-30.92-5.3-46.01-6.83-75.66-6.67-149.34-.1-219.82,19.61l26.07,151.24c1.52,8.81,9.42,15.27,19.65,16.07,49.26,3.84,99.24,2.06,149.17-5.27l2.14-.32c15.95-2.39,31.9-5.36,47.82-8.88.46,2.34,1.04,4.74,1.75,7.15.2.67.4,1.33.62,2-3.18,7.97-4.79,16.46-4.79,25.32,0,8.29,1.31,15.16,2.08,19.24l.13.69c.05.29.11.6.19,1.01.76,4.28,1.96,8.52,3.56,12.66l-.14,2.95c-.33,6.79-.65,13.43-.91,20.17l-12.43-75.47-32.8,1.05c-10.76,1.67-21.52,3.1-32.28,4.26,2.62,22.19,10.02,84.42,13.16,107.91,5.46-4.84,13.95-9.37,26.29-8.64l-.5,8.57c-18.96-1.11-26.02,13.94-26.09,14.09l-1.77-.8c-3.54,8.03-8.54,22.8-5.86,37.63,0,0,58.79,1.75,84.63-13.63l-1.94-11.8c.54.8,1.11,1.61,1.71,2.41,9.52,12.7,28.6,27.83,65.46,27.83,4.89,0,9.09-.23,12.18-.42,18.17-1.13,34.45-4.74,48.48-10.74,14.24,7.02,30.86,10.71,48.41,10.71h.57c21.92,0,41.84-5.94,58.18-17.27,7.51,5.55,16.36,9.87,26.44,12.89,15.89,4.77,30.69,5.28,36.41,5.28h1.37c16.32-.24,32-4.27,45.75-11.71,14.22,6.99,30.3,10.66,46.89,10.66,9.36,0,26.99-1.32,45.18-9.65,13.81,6.43,29.78,9.8,46.54,9.8h.57c11,0,21.59-1.52,31.52-4.53,8.78,3.4,18.53,5.13,29.04,5.13h9.38c7.8,0,15.18-1,22-2.96.33.14.66.28.98.42,7.66,3.19,15.73,4.8,23.99,4.8,7.51,0,14.79-1.28,21.66-3.82,3.37.49,6.79.74,10.19.74,8.94,0,17.61-1.64,25.83-4.89,11.62,3.53,24.63,5.32,38.74,5.32h1.66c4.94,0,9.75-.38,14.35-1.13,5.16.92,10.66,1.38,16.38,1.38h1.1c4.04,0,10.07-.35,16.92-1.91,5.51,1.27,11.31,1.91,17.26,1.91h7.72c19.02,0,36.39-7.32,48.9-20.61,12.13-12.9,18.32-29.9,17.41-47.81ZM335.5,273.7l-4.52,7.3c-.28-.17-2.97-1.75-7.54-2.94-6.31-1.64-16.24-2.52-28.5,2.09-3.08,1.16-6.3,2.66-9.65,4.59l-2.14-3.72-2.14-3.72c30.98-17.82,53.54-4.19,54.48-3.6ZM263.3,282.68l-4.52,7.3c-.28-.17-2.97-1.75-7.54-2.93-6.32-1.64-16.24-2.52-28.5,2.09-3.08,1.16-6.3,2.66-9.65,4.59l-4.28-7.44c30.98-17.82,53.54-4.19,54.48-3.6ZM289.5,417.51c-1.02.14-2.03.24-3.04.31-17.32,1.1-32.49-9.21-34.56-24l8.5-1.19h0s54.52-7.6,54.52-7.6h0l4.25-.59c2.18,15.65-11.13,30.48-29.68,33.07ZM315.14,369.78c-14.93,1.1-28.58-5.97-36.56-17.42-6.23,12.49-18.7,21.47-33.63,22.57-22.54,1.65-42.14-15.27-43.79-37.8-1.65-22.54,15.26-42.14,37.8-43.79,14.93-1.1,28.58,5.97,36.56,17.42,6.23-12.49,18.7-21.47,33.63-22.57,22.54-1.65,42.14,15.26,43.79,37.8,1.65,22.53-15.26,42.14-37.8,43.79Z"/>
      <path class="cls-1" d="M464.3,252.22c0,2.67,1.11,5.16,3.02,7.22,1.27,1.37,2.89,2.56,4.78,3.49.94.46,1.95.86,3,1.19.53.16,1.07.31,1.62.43,1.66.38,3.43.58,5.26.58h0c.54,0,1.08-.02,1.61-.06.14,0,.28-.02.43-.03.45-.04.9-.09,1.35-.15.08-.01.16-.02.23-.03.5-.08,1-.17,1.48-.28.13-.03.27-.06.4-.09.39-.09.77-.19,1.14-.3.11-.03.23-.07.35-.1.45-.14.89-.3,1.33-.47.12-.05.24-.1.36-.15.33-.14.65-.28.96-.43.13-.06.26-.12.39-.19.39-.2.77-.4,1.14-.62.11-.06.21-.13.31-.2.28-.17.55-.35.81-.53.13-.09.26-.18.38-.28.29-.22.58-.45.85-.68.1-.09.2-.18.3-.27.24-.22.46-.44.68-.66.11-.11.22-.23.32-.35.19-.22.38-.44.55-.66.07-.09.15-.18.22-.27,0,0,0,0,0,0-.09.92-.16,1.86-.21,2.82,0,0,0,.01,0,.02-.05.96-.07,1.93-.07,2.91,0,15.23,5.78,27.58,12.91,27.58.29,0,.58-.03.86-.07.07-.01.15-.02.22-.04.26-.05.51-.1.76-.18.03,0,.06-.01.09-.02.28-.09.55-.2.83-.33.07-.03.13-.06.19-.1.24-.12.47-.25.71-.4.04-.02.08-.04.11-.07.27-.17.53-.37.79-.58.05-.04.1-.08.15-.12.23-.19.46-.4.68-.62.04-.03.07-.07.11-.1.26-.26.51-.53.76-.83.03-.03.05-.06.08-.1.23-.28.45-.57.67-.87.03-.04.06-.07.08-.11.48-.68.95-1.43,1.38-2.24.02-.03.03-.06.05-.1.44-.83.85-1.72,1.24-2.67,0-.02.02-.04.03-.06.39-.96.75-1.98,1.07-3.06,0,0,0-.02,0-.03.33-1.08.62-2.22.87-3.4,0,0,0,0,0,0,.25,1.18.55,2.32.87,3.4,0,0,0,.02,0,.02.32,1.07.68,2.1,1.07,3.06,0,.02.02.04.03.06.38.95.8,1.84,1.24,2.67.02.03.04.07.05.1.44.81.9,1.56,1.38,2.24.03.04.06.07.08.11.22.3.44.59.67.87.03.03.05.07.08.1.25.29.5.57.75.83.04.04.07.07.11.1.22.22.45.42.68.62.05.04.1.08.15.13.26.21.52.4.79.58.04.02.08.05.11.07.23.15.47.28.71.4.07.03.13.07.2.1.27.13.55.24.83.33.03,0,.06.01.09.02.25.08.51.14.76.18.07.01.15.03.22.04.29.04.57.07.86.07h0c.32,0,.64-.03.96-.08.06-.01.13-.02.19-.03.31-.06.61-.14.91-.24.05-.02.11-.04.16-.06.28-.1.56-.23.84-.37.04-.02.07-.03.11-.05.29-.16.58-.34.87-.55.06-.04.12-.09.18-.13.28-.21.57-.44.84-.69.03-.03.06-.06.09-.08.26-.24.51-.5.76-.78.05-.05.09-.1.14-.15.26-.3.52-.61.77-.95.05-.07.1-.13.15-.2.25-.35.5-.71.75-1.1,0,0,0,0,0,0,.24-.39.48-.8.71-1.22.04-.08.09-.16.13-.24.22-.42.44-.85.64-1.3.03-.07.06-.14.09-.2.2-.44.39-.88.57-1.35.02-.05.04-.1.06-.15.19-.49.37-1,.55-1.52.03-.1.06-.19.1-.29.17-.53.34-1.07.5-1.62.01-.04.02-.08.03-.11.15-.54.29-1.09.42-1.64.02-.09.04-.18.06-.27.13-.58.26-1.16.37-1.76.02-.1.04-.21.06-.31.11-.62.22-1.24.31-1.88h0s0,0,0,0c.09.64.2,1.26.31,1.88.02.1.04.21.06.31.11.6.24,1.19.37,1.76.02.09.04.18.06.27.13.56.27,1.11.42,1.64.01.04.02.08.03.11.16.55.32,1.09.5,1.62.03.1.06.2.1.29.18.52.36,1.03.55,1.52.02.05.04.1.06.15.18.46.37.91.57,1.34.03.07.06.14.09.21.21.45.42.88.64,1.3.04.08.09.16.13.24.23.42.46.83.71,1.22,0,0,0,0,0,0,.24.38.49.75.75,1.09.05.07.1.14.15.2.25.33.5.65.77.95.05.05.09.1.14.15.25.28.5.54.76.78.03.03.06.06.09.09.27.25.56.48.84.69.06.05.12.09.18.13.29.2.58.39.87.55.04.02.07.04.11.05.28.14.55.27.84.37.05.02.11.04.16.06.3.1.6.18.91.24.06.01.13.02.19.03.32.05.64.08.96.08,2.67,0,5.16-1.74,7.22-4.71,3.43-4.96,5.69-13.35,5.69-22.87s-2.26-17.91-5.69-22.87c-2.06-2.97-4.54-4.71-7.22-4.71-.32,0-.64.03-.96.08-.06.01-.13.02-.19.03-.31.06-.61.14-.91.24-.05.02-.11.04-.16.06-.28.1-.56.23-.84.37-.04.02-.07.03-.11.05-.29.16-.58.34-.87.55-.06.04-.12.09-.18.13-.28.21-.57.44-.84.69-.03.03-.06.06-.09.09-.26.24-.51.5-.76.78-.05.05-.09.1-.14.15-.26.3-.52.61-.77.95-.05.07-.1.13-.15.2-.25.35-.5.71-.74,1.09,0,0,0,0,0,0-.24.39-.48.8-.71,1.22-.04.08-.09.16-.13.24-.22.42-.44.85-.64,1.3-.03.07-.06.14-.09.21-.2.43-.39.88-.57,1.34-.02.05-.04.1-.06.15-.19.49-.37,1-.55,1.52-.03.1-.07.2-.1.3-.17.53-.34,1.07-.5,1.62-.01.04-.02.08-.03.11-.15.54-.29,1.09-.42,1.64-.02.09-.04.18-.06.27-.13.58-.26,1.16-.37,1.76-.02.1-.04.21-.06.31-.11.62-.22,1.24-.31,1.88h0s0,0,0,0c-.09-.64-.2-1.26-.31-1.88-.02-.1-.04-.21-.06-.31-.11-.6-.24-1.19-.37-1.76-.02-.09-.04-.18-.06-.27-.13-.56-.27-1.11-.42-1.64-.01-.04-.02-.08-.03-.11-.16-.55-.32-1.09-.5-1.62-.03-.1-.06-.2-.1-.29-.18-.52-.36-1.03-.55-1.52-.02-.05-.04-.1-.06-.15-.18-.46-.37-.91-.57-1.34-.03-.07-.06-.14-.09-.21-.21-.45-.42-.88-.64-1.3-.04-.08-.09-.16-.13-.24-.23-.42-.46-.83-.71-1.22,0,0,0,0,0,0-.24-.38-.49-.75-.74-1.09-.05-.07-.1-.13-.15-.2-.25-.33-.51-.65-.77-.95-.05-.05-.09-.1-.14-.15-.25-.28-.5-.54-.76-.78-.03-.03-.06-.06-.09-.08-.28-.25-.56-.48-.84-.69-.06-.04-.12-.09-.18-.13-.29-.2-.58-.39-.87-.55-.04-.02-.07-.03-.11-.05-.28-.14-.55-.27-.84-.37-.05-.02-.11-.04-.16-.06-.3-.1-.61-.18-.91-.24-.06-.01-.13-.02-.19-.03-.32-.05-.64-.08-.96-.08h0c-.29,0-.58.03-.86.07-.07.01-.15.02-.22.04-.26.05-.51.1-.76.18-.03,0-.06.01-.09.02-.28.09-.55.2-.83.33-.07.03-.13.06-.2.1-.24.12-.47.25-.71.4-.04.02-.08.04-.11.07-.27.17-.53.37-.79.58-.05.04-.1.08-.15.13-.23.19-.46.4-.68.62-.04.03-.07.07-.11.1-.26.26-.51.53-.75.83-.03.03-.05.07-.08.1-.23.28-.45.57-.67.87-.03.04-.06.07-.08.11-.48.68-.95,1.43-1.38,2.24-.02.03-.04.06-.05.1-.44.83-.85,1.72-1.24,2.67,0,.02-.02.04-.03.06-.39.96-.75,1.99-1.07,3.06,0,0,0,.02,0,.02-.33,1.09-.62,2.22-.87,3.41,0,0,0,0,0,0-.25-1.18-.55-2.32-.87-3.4,0,0,0-.02,0-.03-.32-1.07-.68-2.09-1.07-3.06,0-.02-.02-.04-.03-.06-.38-.95-.8-1.84-1.24-2.67-.02-.03-.03-.06-.05-.09-.44-.81-.9-1.56-1.38-2.25-.03-.04-.05-.07-.08-.11-.22-.3-.44-.59-.67-.87-.03-.03-.05-.07-.08-.1-.25-.29-.5-.57-.76-.83-.03-.03-.07-.07-.11-.1-.22-.22-.45-.43-.68-.62-.05-.04-.1-.08-.15-.12-.26-.21-.52-.4-.79-.58-.04-.02-.08-.04-.11-.07-.23-.15-.47-.28-.71-.4-.06-.03-.13-.07-.19-.1-.27-.13-.55-.24-.83-.33-.03,0-.06-.01-.09-.02-.25-.08-.51-.14-.76-.18-.07-.01-.15-.03-.22-.04-.29-.04-.57-.07-.86-.07-.26,0-.52.02-.78.05-.08,0-.15.02-.23.04-.19.03-.37.07-.55.12-.08.02-.16.04-.24.07-.21.06-.41.13-.61.22-.05.02-.09.03-.14.05-.25.11-.5.23-.74.37-.05.03-.1.06-.16.09-.19.11-.39.24-.58.37-.07.05-.13.09-.2.14-.19.14-.38.29-.57.45-.05.04-.09.08-.14.12-.47.42-.93.89-1.37,1.42-.04.05-.08.1-.12.15-.19.23-.37.47-.55.72-.03.05-.07.09-.1.14-.43.61-.85,1.27-1.24,1.98-.01.02-.02.04-.03.06-.19.34-.36.68-.54,1.04-.02.04-.04.08-.06.12-.56,1.16-1.08,2.43-1.54,3.79-.01.03-.02.06-.03.09-.15.45-.29.9-.43,1.37,0,0,0,0,0,0-.21-.72-.51-1.41-.88-2.08,0,0,0-.01-.01-.02-.14-.25-.3-.5-.47-.75-.07-.1-.13-.21-.21-.31-.16-.22-.33-.43-.5-.65-.1-.12-.19-.24-.3-.36-.17-.2-.36-.39-.54-.58-.12-.12-.25-.24-.37-.36-.19-.18-.38-.36-.59-.53-.14-.12-.3-.24-.45-.36-.2-.16-.4-.32-.62-.47-.18-.12-.36-.24-.54-.36-.21-.14-.41-.28-.62-.4-.39-.23-.79-.45-1.2-.66-.18-.09-.37-.17-.56-.25-.27-.12-.54-.25-.81-.36-.2-.08-.41-.16-.62-.23-.28-.1-.55-.2-.84-.29-.21-.07-.43-.13-.64-.19-.29-.08-.59-.16-.89-.24-.22-.05-.43-.1-.65-.15-.32-.07-.64-.13-.97-.18-.21-.04-.42-.07-.64-.1-.36-.05-.73-.09-1.1-.12-.18-.02-.37-.04-.55-.05-.56-.04-1.12-.06-1.7-.06h0c-1.83,0-3.6.2-5.26.58-.55.13-1.1.27-1.62.43-1.06.33-2.06.73-3,1.19-1.88.93-3.51,2.11-4.78,3.49-1.91,2.06-3.02,4.54-3.02,7.22Z"/>
    </g>
  </g>
</svg>