<?xml version="1.0" encoding="UTF-8"?>
<svg id="Calque_2" data-name="Calque 2" xmlns="http://www.w3.org/2000/svg" viewBox="0 0 1309.56 1564">
  <defs>
    <style>
      .cls-1 {
        fill: #f8e5c0;
      }

      .cls-2 {
        fill: #f7e6c1;
      }

      .cls-3 {
        fill: #ee920d;
      }

      .cls-4 {
        fill: #fdeea6;
      }

      .cls-5 {
        fill: #b61010;
      }

      .cls-6 {
        fill: #f6a210;
      }

      .cls-7 {
        fill: #b70907;
      }

      .cls-8 {
        fill: #f2a20c;
      }

      .cls-9 {
        fill: #ea8e08;
      }

      .cls-10 {
        fill: #8e1a12;
      }

      .cls-11 {
        fill: #fae793;
      }

      .cls-12 {
        fill: #f5e3c4;
      }

      .cls-13 {
        fill: #da541c;
      }

      .cls-14 {
        fill: #f2a014;
      }

      .cls-15 {
        fill: #6fb428;
      }

      .cls-16 {
        fill: #b71413;
      }

      .cls-17 {
        fill: #efa51c;
      }

      .cls-18 {
        fill: #b81412;
      }

      .cls-19 {
        fill: #fac82e;
      }

      .cls-20 {
        fill: #997712;
      }

      .cls-21 {
        fill: #f59a0e;
      }

      .cls-22 {
        fill: #f5b025;
      }

      .cls-23 {
        fill: #fdee93;
      }

      .cls-24 {
        fill: #e07b07;
      }

      .cls-25 {
        fill: #f37022;
      }

      .cls-26 {
        fill: #fce27b;
      }

      .cls-27 {
        fill: #ed9612;
      }

      .cls-28 {
        fill: #fded9d;
      }

      .cls-29 {
        fill: #f9c836;
      }

      .cls-30 {
        fill: #7cb937;
      }

      .cls-31 {
        fill: #f2ad2b;
      }

      .cls-32 {
        fill: #e96411;
      }

      .cls-33 {
        fill: #9b2114;
      }

      .cls-34 {
        fill: #ab1715;
      }

      .cls-35 {
        fill: #1c1d1f;
      }

      .cls-36 {
        fill: #7b0006;
      }

      .cls-37 {
        fill: #f5a018;
      }

      .cls-38 {
        fill: #b30b0a;
      }

      .cls-39 {
        fill: #a5b932;
      }

      .cls-40 {
        fill: #fcf28e;
      }

      .cls-41 {
        fill: #bc1314;
      }

      .cls-42 {
        fill: #f2deaa;
      }

      .cls-43 {
        fill: #fce789;
      }

      .cls-44 {
        fill: #e5972e;
      }

      .cls-45 {
        fill: #9d1e15;
      }

      .cls-46 {
        fill: #9c1811;
      }

      .cls-47 {
        fill: #e29633;
      }

      .cls-48 {
        fill: #f1d1d0;
      }

      .cls-49 {
        fill: #6eb934;
      }

      .cls-50 {
        fill: #859c25;
      }

      .cls-51 {
        fill: #fcebb3;
      }

      .cls-52 {
        fill: #c41b1d;
      }

      .cls-53 {
        fill: #e88320;
      }

      .cls-54 {
        fill: #b91011;
      }

      .cls-55 {
        fill: #ec4d0a;
      }

      .cls-56 {
        fill: #f3740b;
      }

      .cls-57 {
        fill: #bd1816;
      }

      .cls-58 {
        fill: #fcf0b5;
      }

      .cls-59 {
        fill: #b11a1c;
      }

      .cls-60 {
        fill: #c11d1b;
      }

      .cls-61 {
        fill: #e49728;
      }

      .cls-62 {
        fill: #f19e21;
      }

      .cls-63 {
        fill: #cc2f0f;
      }

      .cls-64 {
        fill: #852410;
      }

      .cls-65 {
        fill: #f2f5a2;
      }

      .cls-66 {
        fill: #e4952e;
      }

      .cls-67 {
        fill: #f3800d;
      }

      .cls-68 {
        fill: #bf1d0f;
      }

      .cls-69 {
        fill: #9b1c0d;
      }

      .cls-70 {
        fill: #667629;
      }

      .cls-71 {
        fill: #62af22;
      }

      .cls-72 {
        fill: #fadd42;
      }

      .cls-73 {
        fill: #f9ebcb;
      }

      .cls-74 {
        fill: #f2aa1d;
      }

      .cls-75 {
        fill: #e89832;
      }

      .cls-76 {
        fill: #fcfaee;
      }

      .cls-77 {
        fill: #faf2dd;
      }

      .cls-78 {
        fill: #a41916;
      }

      .cls-79 {
        fill: #bc1715;
      }

      .cls-80 {
        fill: #f7a918;
      }

      .cls-81 {
        fill: #66ad25;
      }

      .cls-82 {
        fill: #fdea90;
      }

      .cls-83 {
        fill: #f1991c;
      }

      .cls-84 {
        fill: #fdf1bd;
      }

      .cls-85 {
        fill: #bf1715;
      }

      .cls-86 {
        fill: #fcf5b9;
      }

      .cls-87 {
        fill: #f6a805;
      }

      .cls-88 {
        fill: #bd1415;
      }

      .cls-89 {
        fill: #e79934;
      }

      .cls-90 {
        fill: #fce284;
      }

      .cls-91 {
        fill: #ed9912;
      }

      .cls-92 {
        fill: #63a11d;
      }

      .cls-93 {
        fill: #69b92a;
      }

      .cls-94 {
        fill: #fcea7e;
      }

      .cls-95 {
        fill: #bc1816;
      }

      .cls-96 {
        fill: #f7eace;
      }

      .cls-97 {
        fill: #c11717;
      }

      .cls-98 {
        fill: #fceca5;
      }

      .cls-99 {
        fill: #fdef9c;
      }

      .cls-100 {
        fill: #f8bd27;
      }

      .cls-101 {
        fill: #fbe877;
      }

      .cls-102 {
        fill: #fdee9c;
      }

      .cls-103 {
        fill: #d3db5e;
      }

      .cls-104 {
        fill: #f8e0aa;
      }

      .cls-105 {
        fill: #a52211;
      }

      .cls-106 {
        fill: #7fb928;
      }

      .cls-107 {
        fill: #b91513;
      }

      .cls-108 {
        fill: #f5e4c1;
      }

      .cls-109 {
        fill: #ed7d17;
      }

      .cls-110 {
        fill: #f6e5b8;
      }

      .cls-111 {
        fill: #fdefa7;
      }

      .cls-112 {
        fill: #f6c349;
      }

      .cls-113 {
        fill: #65ab24;
      }

      .cls-114 {
        fill: #f2a012;
      }

      .cls-115 {
        fill: #fdfcfc;
      }

      .cls-116 {
        fill: #fdeca4;
      }

      .cls-117 {
        fill: #fbedc9;
      }

      .cls-118 {
        fill: #efba6e;
      }

      .cls-119 {
        fill: #55a31d;
      }

      .cls-120 {
        fill: #fbf3d9;
      }

      .cls-121 {
        fill: #f0900e;
      }

      .cls-122 {
        fill: #b91111;
      }

      .cls-123 {
        fill: #fdfdfd;
      }

      .cls-124 {
        fill: #faedae;
      }

      .cls-125 {
        fill: none;
        stroke: #fdfcfc;
        stroke-miterlimit: 10;
        stroke-width: 10px;
      }
    </style>
  </defs>
  <g id="Calque_1-2" data-name="Calque 1">
    <path class="cls-88" d="M1269.43,118.34c-4.84-4.1-11.03-6.59-15.38-9.41-.42-.27-1.24-2.86-3.79-4.38-19.73-11.75-43.84-20.17-66.94-19.31-.2-1.72.01-3.57-.56-5.25-10.43-30.27-32.94-49.42-60.9-63.13h0c-48.42-23.75-99.05-21.56-146.36,2.36-1.05,1.98-1.14,3.32-.6,4.21-1.98-.2-4.42.1-6.48.51-8.94,5.16-13.11-2.55-20.46-6.69-40.78-23.01-86.24-23.65-125.91,1.97-27.33,17.66-43.38,42.45-45.91,75.66-2.17,3.23-7.56,1.76-11.34,2.71-1.16.29-1.5,1.82-1.77,1.89-39.44,10.08-67.13,26.05-84.98,63.74-.34.72-2.57,1.9-3.6,4.57-17.42,45.1-4.12,88.91,29.41,122-2.17,7.59-8.13,12.66-9.21,21.05-5.76,44.74,31,89.59,76.75,86.17,7.3-.55,23.81-7.09,27.82-6.72,7.72.71,20.91,7.87,31.19,8.9,8.8.88,23.02-1.7,30.26.43,3.88,1.14,19.64,19.86,25.24,24.33,47.3,37.72,130.08,47.13,180.41,10.69,10.05,2.96,20.51,7.7,30.84,9.41,61.54,10.15,134.87-19.93,159.25-80.17,8.62-21.3,11-44.27,0-64.89,1.61-3.68,5.66-2.79,7.09-3.57,12.79-6.97,28.23-24.32,33.05-37.77,2.57-7.16,3.71-3.88,4.74-6.23,19-43.28,3.97-102.78-31.86-133.08ZM1291.82,245.85l-5.76,1.25c-7.1,13.78-17.52,25.7-29.6,35.33l-.05,5.91c-5.64-3.88-8.78-1.93-7.08,4.72-1.36.75-5.5-.17-7.06,3.53,0,1.62,6.54,9.25,7.06,10.63-3.82,4.88-3.85,12.34-.08,22.38-4.19,10.62-3.37,17.32,2.44,20.11-5.01-2.81-8.22.76-9.64,10.71-30.8,62.65-116.57,88.7-178.24,56.08-58.2,46.85-152.9,27.26-194.05-32.9-25.32,2.62-46.26.74-69.25-10.21-25.09,11.44-52.02,10-73.09-9.66-27.3-25.47-19.88-48.44-5.49-77.29-29.84-28.98-49.84-67.07-34.67-108.37l-4.51-3.05,6.86-3.33c16.47-31.92,47.36-52.94,82.42-59.48l5.14-5.64c3.73,7.66,12.06,5.81,13.93-2.22-1.84-31.52,15.94-56.82,40.27-74.59l.1-5.81,5.27,2.32c33.33-14.57,74.73-15.6,105.32,6.17,16.61,14.96,28.29,17.11,35.77-3.76.87-1.74.89-2.94.34-3.77,2.67.23,6.31-.42,9.1-.95l7.75,1.97c35.85-12.8,76.11-13.16,111.93-.08l7.79-1.89h0l.25,5.34c28.24,14.68,50.16,36.41,56.5,68.5,27.21,3.03,53.66,8.43,77.15,23.64l7.73-.69c-1.71,1.5-2.51,3.29-2.2,5.45,34.32,27.74,49.02,70.5,35.02,113.27l2.59,6.39Z"/>
    <g>
      <path class="cls-79" d="M872.85,210.45c7.21,1.19,4.01,6.41-2.26,6.78l-.31,5.11c-38.04,9.32-38.56,27.13-.85,35.08l1.16,5c35.88,4.29,72.03,8.05,108.44,11.3,10.49-3.4,21.1-3.6,31.63,0l2.81-4.75,29.69-3.89c18.27-5.41,36.46-12.84,23.98-34.29-5.34,3.43-10.68-.76-9.04-6.78-7.06-5.52-7.81-7.78-2.26-6.78,1.03.39,3.36-.36,5.13.43,29.95,13.37,27.66,32.62,19.13,61.1-11.25,37.58-40.25,77.61-80.12,87.05-19.15,4.54-49.98,5.26-69.42,2.68-63.3-8.41-97.42-54.31-102.79-116.33-2.54-29.27,12.74-32.33,35.98-40.69,3.57-1.28,6.76-.41,9.11-1.02Z"/>
      <path class="cls-6" d="M983.55,140.42c2.83-10.14,6.74-8.43,8.94,1.08l6.87,1.18c1.04,15.01-7.53,28.12-11.44,41.78l16.36,21.15c1.16,1.06,3.2,0,4.11.33,3.81,1.97,4.33,3.62,0,4.52,4.53,4.8,5.28,8.57,2.26,11.3l1.31,6.37c6.9,5.08-3.34,7.28-8.08,2.66-7.45-7.37-13.71-16.03-18.8-25.99-8.91-6.41-10.36-18.68-6.05-28.23,5.83-14.16,6.58-25.46,2.26-33.89-1.97-.64-1.94-1.4,0-2.26.56-1.98,1.32-1.93,2.26,0Z"/>
      <path class="cls-97" d="M1131.59,79.38l-46.39,9.08c-26-.29-61.88,9.18-88.1,13.55-2.24.37-5.08-.35-7.72.09-21.58,3.65-43.28,7.87-64.63,12.27l-2.2,7.96c2.24.06,4.53-.07,6.77,0,2.29,5.29,4.55,5.29,6.78,0,1.24,1.92,2.03,2.04,2.26,0l21.74.03.85-2.29c3.24,1.47,10.37,1.41,11.3-2.26,1.27,4.32,3.25,4.34,4.52,0,.95,1.95,1.7,2,2.26,0,2.06,3.27,10.21.6,13.55-2.26,3.77-.42,7.83-1.94,8.84-2.21.07-.02.13-.03.2-.05,2.97-.27,6.06.2,9.04,0l13.55-2.26c28.22-.32,55.89-4.95,83.59-9.04,6.68-.99,21.51-.58,27.16-3.34,7.65-3.73,5.76-18.17-3.37-19.3Z"/>
      <path class="cls-14" d="M920.29,196.89c-1.88-10.47,15.98-5.05,9.04,4.52,5.75,2.93,3.96,8.51-2.26,9.04-.52,10.71-7.3,17.49-20.33,20.33-.96,7.48-3.22,10.49-6.78,9.04,1.75,8.56-3.67,22.42-13.55,20.33-.75,1.94-1.5,1.93-2.26,0-8.54-1.65-7.62-6.26-5.29-13.49,4.75-14.79,23.23-35.17,39.18-38.47-.3-3.35.45-5.61,2.26-6.78.02-1.46.21-3.2,0-4.52Z"/>
      <path class="cls-80" d="M936.11,142.67c6.59,1.86,3.98,17-2.26,18.07-1.82,6.33-1.82,10.09,0,11.3,3.84,1.86,4.6,7.13,2.26,15.81,2.04.59,2,1.35,0,2.26,2.34,8.33.08,12.1-6.78,11.3l-.1-4.38-7.88-2.1-1.06,1.96c-.44-2.8-3.98-10.17-4.42-14.77-1.68-17.5,6.87-15.75,10.19-25.77,1.5-4.54.36-9.56,3.27-13.68,3.78-5.03,6.04-5.03,6.78,0Z"/>
      <path class="cls-59" d="M1055.84,217.22l-2.26,2.25c4.1-.59,5.32.32,4.52,4.53-5.01,2.25-11.29,1.33-18.85-2.77-11.93.5-19.95-2.34-24.07-8.53-.36-1.95.48-3.42,2.26-4.52,16.91,2.53,22.59,2.99,38.4,9.04Z"/>
      <path class="cls-121" d="M915.78,201.41c4.42.69,3.73,5.03,0,6.78-3.07,5.72-16.12,6.86-18.07,0-11.92,2.95-16.44,1.44-13.55-4.52,9.65-3.79,21.09-2.26,31.63-2.26Z"/>
      <path class="cls-8" d="M897.7,208.19c-.58,4.88-5.09,8.65-13.55,11.3-3.81,2.93-6.91.48-3.45-1.1,2.01-.92,1.34,8.94-5.59,5.62-3.83.47-5.34-1.79-4.52-6.78,1.05-.73,2.41-5.01,2.26-6.78,2.64-.68,7.1-5.13,11.3-6.78l1.48,1.85,12.08,2.67Z"/>
      <path class="cls-56" d="M936.11,122.34c5.29,1.97,6.8,4.23,4.52,6.78,2.09.73,2.09,1.48,0,2.26,4.05,4.12,2.61,6.99-2.26,9.04,1.97.64,1.94,1.4,0,2.26-.42,2.02-1.18,1.94-2.26,0-2.13-.06-5.02.4-6.78,0-1.91-.44-1.89-1.99-2.26-2.26-.17-3.57.58-6.58,2.26-9.04-.13-1.05,3.99-5.73,0-9.04,2.24.08,4.55-.2,6.78,0Z"/>
      <path class="cls-87" d="M990.32,120.08c3.89.84,5.17,5.76,6.78,9.04h-4.52c0,6.61-7.55,6.33-9.04,0-3.6,1.76-3.6-1.25,0-9.04,1.74-2.46,5.84-3.16,6.78,0Z"/>
      <path class="cls-65" d="M992.58,115.57l-2.26,4.52c-1.94-.42-4.63.27-6.78,0-.86,13.72-10.12,9.26-4.52-2.26,3.62-.39,8.59-1.7,13.55-2.26Z"/>
      <path class="cls-36" d="M1017.43,208.19l2.26,4.51h-4.52c-1.65,7.42-7.62,4.28-6.78-2.25.32-1.25-.22-3.08,0-4.52,3.78,1.34,5,1.66,9.04,2.26Z"/>
      <path class="cls-85" d="M1024.21,111.05c-2,4.07-9.28,1.97-13.55,2.26,1.91-3.89,9.35-2.21,13.55-2.26Z"/>
      <path class="cls-80" d="M920.29,201.41c-.07,5.05-.63,3.99-2.26,6.78-.69,1.04-1.45,1.01-2.26,0,1.98-2.52,1.98-4.26,0-6.78h4.52Z"/>
      <path class="cls-116" d="M915.78,208.19h2.26c-5.35,9.14-12.38,9.04-17.53,14.09-2.2,2.16-16.74,23.8-17.62,26.43-1.51,4.53-1.52,7.47,1.27,11.43-1.93,2.11-6.45,2.86-13.55,2.26-13.84-3.82-32.04-7.66-35.99-23.46,5.07-5.78,11.16-12.46,18.05-15.94,4.69-2.37,15.34-3.99,17.94-5.78h4.52s0,6.78,0,6.78c4.36,5.65-2.22,9.31-6.78,4.52-7.09,1.82-12.73,18.67-7.47,8.11l5.21-1.33,2.44-3.37c6.83-1.02,12.04-5.17,15.63-12.44-.23-2.88.92-5.16,3.26-6.9.91-.68,9.74-4.31,10.29-4.4,5.42-.87,12.37.59,18.07,0Z"/>
      <path class="cls-4" d="M1010.66,273.7c-8.54-.31-13.06-2.57-13.55-6.78-2.88-3.24-1.61-4.43,2.26-2.26l.89-8.34c-8.33-.07-5.26-17.07,3.63-11.99,8.56-6.11,22.65,4.74,27.48,13.75,4.07.42,6.96,1.86,8.66,4.32,2.73-4.5,8.8-10.09,13.55-4.52,7.62-6.37,10.63-14.41,9.02-24.12l4.54-2.99c5.01,4.72,11.79,10.75,7.96,18.14-.7,1.34-10.74,11.09-12.54,12.3-9.72,6.52-39.62,11.81-51.9,12.49Z"/>
      <path class="cls-99" d="M1015.17,212.71c13.7,3.65,29.77,4.74,42.92,11.3,3.4,1.69,6.29,4.19,9.04,6.78l-.15,21.31c-2.16,5.11-5.01,1.23-7.41,1.7-1.94.38-3.64,3.1-6,4.09-1.93-.5-4.45-1.94-4.06-3.36,4.4-15.76,5.42-20.37-13.98-26.04-6.77.84-12.81.85-18.11.03-3.64,9.75-6.66,1.14-6.78-6.78-1.26-2.38-3.78-6.25-4.24-8.39-.5-2.34,1.94-2.73,1.98-2.9l1.48,1.92c1.66.84,3.95-.02,5.3.33Z"/>
      <path class="cls-51" d="M884.15,260.15c.75.03,1.52-.07,2.26,0,5.28-3.94,7.11-3.74,12.28-.09,13.98.8,28.49,1.51,43.52,2.14.41,3.07,2.46,4.13,5.2,4.73.58-2,1.34-1.96,2.26,0,4.91-3.11,10.85-3.19,17.83-.26,5.98-.69,9.82.91,11.54,4.78,1.97.64,1.94,1.4,0,2.26-36.67.32-72.58-1.41-108.44-11.3,1.8-3.74,9.49-2.4,13.55-2.26Z"/>
      <path class="cls-84" d="M1010.66,273.7c-10.38.58-21.19-.09-31.63,0v-2.26c-.8-4.39,1.75-5.37,7.66-2.93l10.42-1.58,13.55,6.78Z"/>
      <path class="cls-98" d="M979.03,176.56c.76,4.33-.99,9.95.31,14.38,1.95,6.66,22.3,29.58,24.54,39.84,1.97.64,1.94,1.4,0,2.26-5.72,5.12-17.09-4.21-13.55-11.3-4.21-6.94-7.67-10.74-14.17-15.31l-1.64-5.03c-6.52-2.34-6.06-29.16,2.26-29.37,2.41-.45,3.16,1.05,2.26,4.52Z"/>
      <path class="cls-58" d="M981.29,142.67c1.43.09,2.9-.38,4.31.15,6.55,13.11-.89,22.34-6.57,33.74-.04-.25-3.25-2.21-2.26-4.52-2.16-3.7-1.73-20.98-.88-25.65l3.14-3.72c.49-1.49,1.26-1.4,2.26,0Z"/>
      <path class="cls-32" d="M983.55,129.12h9.04l.14,11.16c3.44-1.16,6.27,2.33,6.64,2.39l-7.71.13-2.53-4.77c-2.15-.37-4.2,2.19-5.58,2.38-3.93-1.41-6.94-4.42-9.04-9.04-1.99-.56-1.94-1.32,0-2.26l3.18-4.52c1.71,2.09,3.67,3.6,5.86,4.52Z"/>
      <path class="cls-26" d="M1010.66,221.74c1.23,2.32,2.43,6.18,2.65,6.45.93,1.16,3.41-.03,4.13.32,4.51-3.07,6.99.61,9.04,4.52.58,5.47-4.69,6.97-15.81,4.52-5.05,3.25-7.62,1.39-6.78-4.52v-2.26c2.48-2.01,4.17-1.14,6.77,0v-9.04Z"/>
      <path class="cls-63" d="M974.51,129.12c-.13.72.09,1.52,0,2.26,2.93,2.22,4.66,3.88,6.78,9.04v2.26c-.75-.05-1.51.02-2.26,0-2.07,4.31-4.71,4.31-6.78,0-2.43-.74-4.69-1.49-6.78-2.26-5.88-.57-3.8-9.73-.49-7.12,1.69,1.33-.26,3.65-1.77-1.92-3.22-3.45-1.81-4.79,2.26-2.26,1.68-4.81,7.84-5.04,9.04,0Z"/>
      <path class="cls-67" d="M976.77,117.82c1.77,3.22,1.92,11.43-2.26,11.3h-9.04c-4.01-.28-.91-5.71,2.26-6.78-.58-2.73,1.77-3.75,4.52-4.52,1.48-.16,3.04.17,4.52,0Z"/>
      <path class="cls-112" d="M960.96,120.08c6,.44,6,1.95,0,4.52-.57,1.94-1.33,1.89-2.26,0-3.15,2.58-10.7,3.7-13.55,0-1.81,3.84-5.67,1.18-6.78-2.26,5.05-4.51,15.45-1.68,22.59-2.26Z"/>
      <path class="cls-72" d="M979.03,117.82v9.03s2.25,0,2.25,0l2.27-6.77v9.04h-9.04c.7-3.81,2.63-7.29,2.26-11.3.74-.08,1.51.08,2.26,0Z"/>
      <path class="cls-40" d="M945.14,124.6c5.31.36,6.06,1.87,2.26,4.52-.66,1.95-5.2,1.64-6.78,0-.84-1.51-4.33-3.71-4.52-6.78.75.07,1.51-.06,2.26,0,4.75.36,6.13,2.14,6.78,2.26Z"/>
      <path class="cls-42" d="M972.25,117.82v4.52c-1.47.17-3.1-.22-4.52,0-7.16,8.15-9.42,8.9-6.78,2.26v-4.52c3.52-.28,7.02-1.79,11.3-2.26Z"/>
      <path class="cls-111" d="M902.22,242.07l4.79,1.13c-.88,5.78-2.1,19.54,6.51,14.68,1.92-18.9,9.37-23.36,22.59-9.04,5.21-5.31,8.04,1.02,6.78,6.78,4.83,1.21,5.02,7.09,4.52,11.3-11.64-.83-10.18,1.3-24.1-1.88-7.55-1.72-17.04.81-24.51-.34-4.1-.63-5.25-3.88-12.39-4.56,6.19-4.9,8.82-13.16,13.55-20.33,3.78-3.3,5.01-2.04,2.26,2.26Z"/>
      <path class="cls-102" d="M936.11,248.85c-.98.07-2.56,2.44-4.52,1.23-2.51-1.55-3.88-6.19-7.56-5.55-9.41,1.64-6.72,9.37-10.51,13.35q-3.98-5.57,0,0c-.16.17.26,1.82-1.15,2.2l-2.22.13c-6.98-.1-6.7-12.46-7.92-18.15l2.13-3.07c2.61,3.19,7.82,2.49,11.42.81-2.64-6,3.78-9.76,9.04-6.78-1.37-7.62-.62-15.15,2.26-22.59.58-1.24.7-5.49,2.26-9.04,1.1-2.51,5.3-7.99,6.78-11.3,2.13-1.3,1.11,3.51,1.13,3.29.35-4.64,3.12-12.25,7.91-10.06l2.94,5.56c-3.82,16.52-7.72,32.71-11.7,48.57,3.56,5.64,3.47,9.43-.27,11.38Z"/>
      <path class="cls-43" d="M924.81,233.04c-6.1,1.1-11.37,1.1-15.81,0-3.17,2.99-4.34,1.73-2.26-2.26,7.87-8.13,14.64-8.19,20.33-20.33-1.24,10.4,5.95,13.8-2.26,22.59Z"/>
      <path class="cls-90" d="M909,233.04c3.5,1.58,5.76,3.84,6.78,6.78-.36.21-.16,1.83-3.27,2.31s-6.95-.33-10.28-.05c-.29-1.34-.74-2.4-2.26-2.26,2.21-3.34,3.92-6.08,6.78-9.04l2.26,2.26Z"/>
      <path class="cls-86" d="M958.7,144.93c-1.45,9.98-3.71,19.77-6.78,29.37,2.78,4.84-1,10.97-6.78,9.04-2.58,3.44-6.7,6.48-6.79,11.29h-2.24s0-4.51,0-4.51c-.17-.71.23-1.6,0-2.26-.09-9.15,3.2-24.65,11.3-29.37,1.62-4.5,1.6-9.12-.03-13.88l4.55-1.94c-1-4.58,8.32-1.25,6.78,2.26Z"/>
      <path class="cls-24" d="M947.4,158.49c-1.16,10.63-6.57,20.04-11.3,29.37-.07-.19-2.04-.79-2.27-3.28-.39-4.15.21-8.38.01-12.53-4.08-1.96-1.64-6.41,2.26-6.78.4-4.98,1.02-12.43,6.78-11.3,3.59-17,8.48-7.4,4.52,4.52Z"/>
      <path class="cls-11" d="M936.11,165.27c-1.29,2.67-1.46,4.48-2.26,6.78-.07.21-1.48.44-1.83,1.63-1.35,4.66-1.56,11.42-2.7,16.44-3.5.16-4.68-7.88-4.69-10.16-.05-7.62,6.27-13.14,9.22-19.21,4.81-3.54,3.92.12,2.26,4.52Z"/>
      <path class="cls-94" d="M945.14,142.67c1.38,2.09.62,5.86-2.26,11.3-1.76,3.4-5.36,8.36-6.78,11.3l-.28-3.19-1.98-1.33c3.04-6.25,2.45-11.26,2.26-18.07.75.02,1.51,0,2.26,0,.66-1.95,5.2-1.64,6.78,0Z"/>
      <path class="cls-9" d="M884.15,219.48c.06.72,1.64,1.97,1.53,3.35-.07.86-3.7,9.54-4.12,9.87-1.71,1.35-12.29,2.73-15.48,2.59-9.72,4.32-2.85-5.01,2.26-6.78.19-.36,4.5-1.8,6.78-4.52,2.74-3.28,2.5-6.44,5.65-9.03l3.38,4.51Z"/>
      <path class="cls-13" d="M947.4,129.12c.33-3.49,8.44-4.24,9.04,0,1.93.6,1.89,1.36,0,2.26.45,2.62-1.9,5.54-2.79,4.15-3.12-4.89,12.25.82,11.82,4.88,1.77.07,3.58-.34,5.33.29l1.45,1.97c-.42,2.03-1.18,1.94-2.26,0-1.75,5.6-4.01,5.6-6.78,0,.82,3.91-1.92,5.83-4.52,2.26-.37-.1-3.16-3.94-6.78-2.26-5.45,1.41.25-6.93-1.15-1.03-1.58,6.66-2.25,7.44-5.62,1.03h-6.78v-2.26c2.7-3.63,3.45-6.64,2.26-9.04.12-.35.16-1.98,0-2.26h6.78Z"/>
      <path class="cls-114" d="M868.33,228.52c-.78,1.47,1.89,5.21-4.4,4.78l2.14,2-4.54,13.56h-6.75c-1.12-12.29-.87-20.34,13.55-20.34Z"/>
      <path class="cls-82" d="M974.51,201.41c7.46.74,12.81,9.1,13.6,15.84l2.18-1.22.03,5.72c-6.46,2.24-3.86,5.4,1.37,9.08,11.22,4.26,15.28,8.77,12.18,13.51-8.92,5.51,1.91,13.79-4.52,20.33-2.78.28-4.68-.62-4.75-3.47-7.85,2.63-10.78-.73-8.81-10.09-9.29-2.79-19.04-14.02-21.81-24.23-1.76-6.49,1.85-30.68,10.52-25.46Z"/>
      <path class="cls-91" d="M990.32,221.74c5.88,6.29,6.1,6.63,13.55,11.3,2.33,1.46,4.45,3.45,6.78,4.52l20.17.15c4.17.36,4.68,3.05,2.42,6.63.56,3.33,1.36,6.76,2.38,10.28,11.41.87,12.88,3.47,4.4,7.79-2.36.29-12.89.32-13.39-.17-1.21-13.08-13.81-12.73-22.76-17.9-.34-.2-.74-2.41-2.26-3.31-6.76-4.01-12.92-4.83-17.75-11.7-3.34-4.74-8.36-14.06-.33-16.63-.72,5.63,4.62,6.72,6.79,9.04Z"/>
      <path class="cls-83" d="M1053.58,257.89c-4.37,1.84-8.77,3.92-13.55,4.52l2.26-4.51c-8.21-1.06-14.91-5.29-9.04-13.57,5.13-3.83,7.71-1.14,8.85,4.81,8.96-3.61-4.92-14.43-11.76-11.85l-3.87-4.25c-5.83,2.34-8.12-4.06-9.04-4.52,14.03-10.67,37.54-2.44,40.33,15.19.9,5.69-4.1,8.55-4.18,14.17Z"/>
      <path class="cls-22" d="M985.81,251.11c.75,1.6,3.52,2.95,2.28,6.79l11.27-2.27v9.03c-.49.5-2.1,2.23-2.26,2.26-3.3.88-14.65,2.96-16.83,1.69-5.05-2.95-7.67-16.63,1.01-15.24l4.52-2.26Z"/>
      <path class="cls-28" d="M967.73,169.78l3.94,4.49c-.61,8.81-1.46,17.57-2.56,26.3-10.87,22.54-7.27,34.62,12.28,49.38l-.1,3.42c-2.62,2.39-.43,10.79,2.12,12.57,2.14,1.49,10.85,1.54,13.7.99-3.52,2.13-13.28,4.16-18.07,4.52-14.37,1.07-18.32-2.35-29.37-4.52-.55-6.69-2.05-13.47-4.52-20.33-6.03,1.01-6.67-.29-2.26-4.52-1.54-4.31-1.87-9.24,0-13.55-.93-1-1.77-2.05-2.29-3.23-2.13-4.81,9.35-43.68,14.18-49.88.67-.86,2.18-1.08,3.92-1.11,1.27-6.26,3.53-10.02,6.78-11.3,1.96.45,2.72,2.71,2.26,6.78Z"/>
      <path class="cls-31" d="M949.66,266.92c-.68-.13-1.49.05-2.26,0-5.06-2.74-5.66-5.28-4.52-11.3-2.47-4.51-3.26-7.11,2.26-9.04,2.64,4.27,5.95,8.54,8.8,12.73,1.18,3.69-.58,6.58-4.28,7.6Z"/>
      <path class="cls-3" d="M979.03,142.67c5.68,9.54.29,19.79-2.26,29.37-2.94,11.06-.87,24.89-2.26,29.37-.09.29-2.73,1.87-3.49,4.33-2.88,9.35-5.22,18.28.16,27.25,4.1,6.84,10.02,8.21,14.63,18.13v4.53c-.35.34-3.35-1.62-4.52-2.27-7.42-4.09-21.14-15.11-22.61-23.68-2.16-12.56,5.4-22.57,6.7-34.02,1.02-8.95.91-16.37,2.35-25.88.46-8.09.35-16.4-.31-24.94l2.57-2.17c.75-.01,1.51.02,2.26,0,2.24-.07,4.53-.07,6.78,0Z"/>
      <path class="cls-23" d="M1026.47,233.04c6.91-.72,15.77-.53,20.06,5.92,7.12,10.69.56,16.57-11.03,14.41,3-5.57,2.84-5.97-2.25-9.03-.21-.13-.2-1.63-1.45-1.94-3.41-.85-7.09.15-10.52-.77-3.57-.96-7.27-2.53-10.62-4.07l1.36-1.98c5.16,1.7,12.52-2.34,14.45-2.54Z"/>
      <g>
        <path class="cls-69" d="M1145.11,126.82c-30.85,1-61.93-1.18-92.75-.06-8.49.31-19.96.96-28.14,2.36h-27.11c-2.58-3.38-4.53-4.67-4.52,0-10.16,4.86-1.84,12.9,6.78,13.55,4.52.73,10.84-.14,15.81,0,12.65.34,25.58,2,37.18,2.35,32.66.97,65.56-.78,98.21-.24l2.18-11.98-7.64-5.98Z"/>
        <path class="cls-69" d="M922.56,134.78c-.95,3.47,2.43,4.13,4.52,5.64h4.52c2.06-4.03-2.2-8.55-2.26-9.04l-6.77,3.4Z"/>
        <path class="cls-69" d="M973.04,132.45c0,2.02,2.19,5.03,1.54,7.89,2.2.14,4.5.25,6.7.07.75-.06,1.53.1,2.26,0v-9.04s-9.04,0-9.04,0c-.01.09-1.47.33-1.47,1.07Z"/>
        <path class="cls-69" d="M940.62,131.38c-.65,1.92-4.03,4.6-2.26,9.04h9.04s0-9.03,0-9.03h-6.78Z"/>
        <path class="cls-69" d="M963.22,131.38c-1.87-4.56-5.55-4.87-6.78,0l-4.43.06,2.31,8.83c3.69.48,7.45,0,11.16.14l2.26-9.03c-1.49-.06-3.02.08-4.51,0Z"/>
      </g>
      <path class="cls-101" d="M967.73,122.34c-1.73,1.9-1.48,5-2.26,6.78-.18.4-2.08,1.05-2.26,2.26-2.25-.13-4.53.08-6.78,0,.15-.72-.19-1.57,0-2.26-6.84-2.19-4.3-4.82,2.26-4.52.65.31,1.79-.34,2.26,0,.13.09-.36,2.65,2.18,2.21-.43-5.82.99-3.92,4.6-4.47Z"/>
      <path class="cls-21" d="M958.7,124.6l-1.87,1.34c-.47.99-.11,2.19-.39,3.18h-9.04l-2.26-4.52c6.18,1.17,7.55-2.82,13.55,0Z"/>
      <path class="cls-27" d="M965.47,147.19c-1.04,9.38-3.3,18.42-6.78,27.11-9.06,17.41-11.02,35.69-15.81,54.22-1.83,4.35-1.47,9.16,0,13.55.96,2.4.92,2.35,2.26,4.52,2.01,4.01-2.09,8.17-2.26,9.04-2.69-1.18-3.63-6.99-6.78-6.78-.09-5.47-5.02-8.76-4.55-14.54.54-6.59,5.28-12.29,6.38-16.38,3.02-11.14,3.72-23.45,7.2-34.59,2.07-2.76,4.99-6.21,6.78-9.04,3.16-9.67,5.42-19.46,6.78-29.37.86.23,3.46-2.23,4.52-2.26,3.95,1.06,5.99,1.84,2.26,4.52Z"/>
      <path class="cls-74" d="M909,233.04c1.85-1.5,12.62-6.79,14.67-6.79l1.14,6.79c-1.67,1.79-6.68,5.37-9.04,6.78h-11.3c-.32-.26,3.95-6.32,4.52-6.78Z"/>
      <path class="cls-90" d="M913.52,257.89h-4.51c-.05-5.21-1.26-10.24,3.39-13.55h1.12s0,13.55,0,13.55Z"/>
      <path class="cls-62" d="M951.92,142.67c-3.15,4.28-1.93,9.49-2.55,14.44l-1.97,1.37c.4-3.63-.27-7.6,0-11.29h-2.24c1.19,3.89-1.44,5.18-2.27,6.77-.45-2.6.34-10.43,2.26-11.3.87-.39,3.49.76,4.29-.28l1.36-4.25,1.13,4.53Z"/>
      <path class="cls-37" d="M951.92,174.3l4.53-28.24,2.25-1.13c.91,11.44-.88,20.02-6.78,29.37Z"/>
      <path class="cls-124" d="M969.99,142.67c1.1,5.4.79,15.57-.07,21.47-.36,2.45-2,4.42-2.19,5.64l-1.97-1.45c-.63-1.75-.22-3.56-.29-5.33-2.59-3.92-2.59-9.19,0-15.81-.12-1.25-1.8-3.09-2.26-4.52,2.26-.05,4.52.04,6.78,0Z"/>
      <path class="cls-37" d="M965.47,163.01l-6.78,11.3,4.86-25.69,1.91-1.41c.49,5.04-.21,10.63,0,15.81Z"/>
      <path class="cls-31" d="M942.88,242.07c-.89-2.22-2.77-2.23-2.42-8.02.28-4.57,2.34-5.22,2.42-5.53v13.55Z"/>
    </g>
    <path class="cls-52" d="M525.43,253.85c17.93-19.49,22.24-53.05,14.6-78.05-.96-3.13-3.07-5.49-3.48-6.66-4.4-12.66-5.5-16.17-13.55-27.11-6.21-8.44-11.8-15.1-20.45-21.34-19.8-14.3-43.16-21.96-67.58-21.65-4.25-28.65-30.13-50.44-55.92-60.43-6.34-2.46-24.27-8.45-30-7.28-44.07-7.98-92.29,5.55-123.4,38.2-33.59-12.62-74.43-11.1-105.53,7.36-26.34,15.64-46.5,42.26-44.5,74.09-18.93,3.9-36.8,15.14-49.62,29.45-4.94,5.52-7.54,9.68-11.3,15.81-25.59,41.85-17.34,97.75,21.44,128.79,5.25,4.2,27.22,16.96,32.78,15.79.92.48,1.8.87,2.66,1.2,3.02,2,.42,4.32.17,7.21-1.36,15.56-1.89,26.78,3.95,41.29,23.87,59.27,105.37,71.26,158.95,47.71,28.3,21.51,65.14,25.78,99.57,19.92,32.72-5.57,66.39-22.81,83.95-51.65,19.66,4.05,38.32,2.21,57.43-3.51,66.11-19.77,97.15-94.13,49.83-149.15ZM516.49,359.93c-24.44,33.51-70.49,35.45-108.18,31.91-30.19,59.54-123.36,70.52-173.01,28.96-50.41,26.48-119.4,18.4-146.57-36.23l-6.26-3.08,3.21-4.53c-2.15-12.77-.58-25.58,4.7-38.41,3.45-10.88-18.86-14.93-21.46-6.76l-2.03-5.35C18.34,305.85,2.11,251.85,24.04,205.44l-2.56-4.68c6.13,2.67,15.35-8.1,11.3-13.55l5.75.68c13.8-13.71,30.97-19.91,49.15-25.61-2-74.19,81.63-104.01,141.42-75.55,26.02-30.11,62.41-43.39,101.09-44.33l3.05-4.3,1.94,4.82c41.52,4.88,82.63,24.68,88.41,70.27,35.63-.17,69.78,9.66,90.64,40.6l6.51,1.78c-4.22,5.15.01,15.51,6.78,15.81l-3.09,5.34c1.98,7.51,3.66,15.22,3.79,23.03.43,25.2-7.28,36.49-20.47,55.72,28.98,30.65,34.52,69.11,8.74,104.46Z"/>
    <g>
      <path class="cls-44" d="M353.26,305.33c5.08-.42,8.1,1.08,9.04,4.52,6-1.62,9.58.97,10.73,7.77,14.98,6.57,8,13.2-3.96,17.08-42.82,13.15-101.84,24.95-148.05,20.42-15.12-1.48-30.23-11.42-32.67-27.19-9.44-8.28,17.77-16.34,22.59-4.52,5.62-2.03,10.51,4.06,6.78,9.04,4.85,4.07,9.49,4.27,13.94.61,5.47-9.35,11.36-13.32,17.69-11.9,20.6-.47,40.53-4.01,59.79-10.62l14.97,1.76c10.8-10.4,20.52-12.72,29.15-6.95Z"/>
      <path class="cls-45" d="M412,242.07c12.01,3.12,11.75,21.82,0,29.37-.3,7.51-6.04,9.7-11.3,4.52-4.14-2-1.16-4.63,2.57-5.62,2.1-.56-32.85,15.9-40.88,12.96-7.12-7.13-14.68-13.34-22.69-18.64-2.67-4.65,3.07-5.89,6.78-4.52,4.29-5.4,15.28-6.77,22.59-6.78,10.01-4.95,24.34-11.14,36.15-11.3,0-3.73,5.82-3.39,6.78,0Z"/>
      <path class="cls-61" d="M407.48,296.29c2.59-6.41,11.16-6.58,13.55,0-.59,22.39-29.01,32.11-46.86,37.95-1.92.63-3.97.11-5.1.46l9.03-7.9c-1.76-3.82-7.15-4.6-8.57-6.09-1.94-2.04-1.93-9.76-7.24-10.86,9.28-14.24,29.71-24.58,45.18-13.55Z"/>
      <path class="cls-15" d="M195.13,309.85c16.21-.07,21.48,4.45,15.81,13.55-8.87-2.1-11.89-2.45-20.35,1.2-1.63.7-1.99,3.2-2.25,3.32-1.11.54-18.08,4.71-19.01,4.44-2.69-3.88-4.96-5.92-8.09-8.95,2.56-3.5,4.37-7.45,5.41-11.86,3.65-.89,6.37-2.21,8.14-3.95.55-1.4,2.19-3.41,2.26-4.52.64-1.97,1.4-1.94,2.26,0l11.39,2.77c2.78-2.65,3.67.14,4.42,4.01Z"/>
      <path class="cls-81" d="M418.78,278.22c4.42,4.83,6.68,10.11,6.78,15.81-1.45.33-3.27,2.11-4.52,2.26-4.25.51-9.14-.28-13.55,0-5.37-6.57-.5-2.49-.76-2.21-1.04,1.12-26.57-4.69-28.61-6.83-3.77,1.48-4.35,1.38-2.26-2.26,2.5-6.67,18.62-11.38,24.85-9.04,3.82-1.49,7.39-2.01,11.3-4.52,1.04,2.62,4.49,5.22,6.78,6.78Z"/>
      <path class="cls-105" d="M190.61,280.48c1.93.55,1.87,1.31,0,2.26,4.51,9.9,12.79,10.65,24.85,2.26-1.62-5.75.1-6.21,4.52-2.26,6.54,2.52,4.84,7.31-2.26,6.78,1.94,9.99-13.02,14.17-21.4,13.2-2.83,5.77-11.75,2.53-17,.36h-2.26c.39-6.62-3.16-6.73,0-18.07,1.77-3.85,10.76-8.33,13.55-4.52Z"/>
      <path class="cls-68" d="M398.45,214.96c8.2-.9,15.77-.48,20.33,6.78,3.63,9.22-7.93,15-15.81,13.55l-4.09-2.4c2.47-7.69.13-10.57-4.95-15.67.24-.06.85-1.86,4.52-2.26Z"/>
      <path class="cls-113" d="M174.8,307.59c-.33.84.85,2.85-.46,4.1l-4.17,1.69.12,10.03h-9.04c-4.5-4.36-8.59-4.48-6.78-13.56l20.34-2.26Z"/>
      <path class="cls-49" d="M425.56,294.03c-5.4-3.72-10.39-9.55-6.78-15.81,5.84,3.97,13.38,6.48,18.06,12.42-3.04,5.14-7.58,2.56-11.28,3.39Z"/>
      <path class="cls-55" d="M414.26,237.56c-3.44,3.69-9.54,2.53-13.55,0-3.37-3.02-1.92-4.43,2.26-2.26,5.72-4.24,15.63-6.5,15.81-13.55.22.35,1.96.14,2.34,3.27,1.1,9.14-2.49,8.22-6.86,12.54Z"/>
      <path class="cls-100" d="M192.87,275.96c5.53,4.09,3.93,7.32-2.26,4.52l-13.55,4.52c.34-1.22-.23-3.09,0-4.52,2.83-.35,8.12-4.28,9.04-4.52.66-.17,1.49.12,2.26,0,1.92-2.54,3.47-3.21,4.52,0Z"/>
      <path class="cls-109" d="M414.26,237.56c-.91.9-1.42,3.26-2.26,4.52-1.17-.3-5.52-.28-6.78,0-3.19.05-5.45-.7-6.78-2.26-3.02-3.73-1.8-4.87,2.26-2.26h13.55Z"/>
      <path class="cls-64" d="M393.93,217.22c14.79,8.85,2.06,22.63-11.3,27.11,1.41,4.44-5.63,6.59-9.04,4.52,1.35-7.94-6.26-2.9-11.37-5.58-6.23-3.27-1.33-10.94-15.74-10.23l1.47-1.86c5.74-2.68,13.31-3.18,18.86-4.91,9.51-2.97,17.43-6.52,27.11-9.04Z"/>
      <path class="cls-66" d="M398.45,214.96c-.38,1.11-1.89,1.86-4.52,2.26-3.49,7.85-19.8,13.94-27.11,9.04h-9.1c-.59-8.75-9.29-22.32-17.17-13.48l-3.1-4.59c-4.06-3.11-5.57-3.11-4.52,0,1.32,3.91-.74,6.92-6.18,9.04l-23.08,7.48c-.56,5.08-.95,10.71,2.15,15.11-6.47,8.37-24.93,12.33-33.89,6.78-14.8,2.09-19.27-2.53-13.43-13.86,0-6.06-6.2-19.21-8.89-22.69-4.53-5.88-4.45-10.04,1.98-6.37.73-3.99,3.06-7.6,6.78-9.04-13.22-1.84-9.46-7.87,2.15-9.19-1.86-5.43-1.31-8.4,4.63-6.63l-2.26-6.78c-1.68,6.3-18.5-2.36-13.55-6.78,1.36-.16,3.12-.1,4.52,0,1.99-1.59,5.11-.97,7.72-.4,9.47,2.07,5.11,4.66.85.4-.3-.3,0-1.19.47-2.26,32.79-7.23,71.46-12.25,103.94,1.11,19.39,7.97,39.94,28.35,31.61,50.85Z"/>
      <path class="cls-75" d="M262.9,163.01l4.51,4.51c-4.84.02-8.56-1.88-13.55-2.25l1.49-1.92c2.36-1.01,5.51.11,7.54-.34Z"/>
      <path class="cls-89" d="M337.45,208.19c1.3-.17,3.13.71,4.19-.4l.52-3.87c8.13-1.82,11.58,8.22,19.18,10.98,2.14,2.26-.46,4.17-.9,6.14-1.27,5.68,5.67,1.2,6.38,5.22-1.58,5.43-8.35,7.68-20.33,6.78-10.26.5-22.58,4.79-32.95,6.67-2.63.48-5.51-.29-7.71.1-7.56.23-6.51,1.53-6.77-5.6-.13-3.52-.83-10.03.98-12.62,6.84-3.98,14.86-4.52,22.21-7.15,2.91-1.04,8.24-5.56,10.68-6.26,1.11-4.47,3.15-4.39,4.52,0Z"/>
      <path class="cls-12" d="M292.27,183.34c-.06,8.96-8.97,8.96-9.03,0h9.03Z"/>
      <path class="cls-120" d="M332.94,176.56c-.24-.24-.24-6.53,0-6.77,1.37-1.37,7.82.51,9.02,3.39-1.2,2.87-7.65,4.75-9.02,3.39Z"/>
      <path class="cls-117" d="M294.52,210.45c.24.24.24,6.53,0,6.77-1.37,1.37-7.82-.51-9.02-3.39,1.2-2.87,7.65-4.75,9.02-3.39Z"/>
      <path class="cls-1" d="M314.86,187.86c.24.24.24,6.53,0,6.77s-6.53.24-6.77,0-.24-6.53,0-6.77,6.53-.24,6.77,0Z"/>
      <path class="cls-76" d="M332.93,208.19l-2.25-1.13v-5.64s6.77,0,6.77,0v6.78c-1.45.19-3.34-.33-4.51,0Z"/>
      <rect class="cls-73" x="303.57" y="165.27" width="6.77" height="4.51"/>
      <path class="cls-118" d="M278.71,214.96h-6.77c-1.72-9.77,8.34-1.25,6.77,0Z"/>
      <path class="cls-92" d="M351.01,298.55c.42-2.03,1.18-1.95,2.26,0,4.11,2.93,3.53,3.58,0,6.78-3.91.26-8.28-.71-12.06.37-5,1.42-11.1,10.21-16.12,10.97-7.84,1.19-13.78-2.92-20.26-2.32-7.56.7-18.39,9.04-24.96,8.98-2.59-.02-5.49-2.18-8.97-2.28-7.16-.21-14.4.34-21.55.1.67-2.76,4.44-4.26,11.3-4.52,2.62-8.27,15.82-5.36,22.59-2.26.64-1.98,1.39-1.95,2.26,0,17.3-13.14,43.95-20.3,65.51-15.81Z"/>
      <path class="cls-106" d="M238.05,307.59c8.42-.22,8.32,8.17,0,11.3,3.66,9.1-12.07,23.04-20.33,13.55-2.38-3.13-4.21-3.75-6.78-9.04-1.78-3.67-4.48-8.22-2.25-11.29-3.36-.27-7.03.53-10.32.03-2.77-.42-3.06-2.24-3.25-2.3,5.17-6.71,22.2-6.21,29.37-2.26,7.74-5.53,12.26-5.53,13.55,0Z"/>
      <path class="cls-119" d="M378.11,287.26c11.16-4.34,16.71.16,26.46,4.07,4.27,1.71,7.38-1.94,2.91,4.97-6.57.41-16.15-.68-21.08.4-9.99,2.18-14.05,13.14-24.1,13.16-4.59-.95-10.48,2.85-9.04-4.52-1.98-2.52-1.98-4.26,0-6.78l.96-3.04c8.13-2.13,16.1-4.88,23.89-8.26Z"/>
      <path class="cls-71" d="M260.64,316.62l-11.3,4.52c-9.27,5.5-16.16,21.39-28.06,17.89-3.98-1.17-2.96-5.8-3.56-6.59l1.3-2.13c12.05,7.9,12.37-7.09,19.03-11.42,2.85-8.65,17.84-10.13,22.59-2.26Z"/>
      <path class="cls-75" d="M249.35,165.27l.09,1.19c5.52-.71,10.7,5.01,13.46,5.58,5.69.91,6.96,2.84,2.26,6.78.01.08-1.3.44-1.24,1.12.33,3.76,3.46,8.48-1.01,11.35l-9.03-1.17c-.86,3.62,3.76,1.37,4.51,4.51-1.39,2.97-3.65,5.98-6.78,9.04-.12.31-2.81.34-2.26,2.25l9.04.02c-5.64,8.62,4.76,16.37,4.7,25.98-.02,4.31-3.22,7.94-2.45,12.41l11.3,2.26c-1.35,1.38-2.75,2.68-4.32,3.74-9.43,6.35-90.97,12.01-94.21,8.17-1.19-1.41-1.11-3.41-.87-5.13-2.3-13.1-5.03-28.08,1.26-40.53,1.41-2.79,4.01-4.75,5.51-6.91l4.8-.94c4.6,9.48,11.28,9.78,20.04.9,15.33,1.17,23.6.05,22.61-18.03,1.66-2.02,3.92-4.28,6.78-6.78-10.35-2.31,2.08-9.52,8.09-10.17-1.82.33-3.01-.04-3.58-1.13,2.98-.87,5.84-3.86,11.3-4.52Z"/>
      <path class="cls-77" d="M258.38,194.63c1.18,4.9-1.24,9.66-6.78,9.04.17-.43-3.6-6.19-2.26-9.03h9.03Z"/>
      <path class="cls-108" d="M262.9,172.04c2.6.54,6.18-.38,9.03,0v3.37s-6.77,3.4-6.77,3.4c-.25-1.7-2.66-4.29-2.26-6.78Z"/>
      <path class="cls-104" d="M189.49,221.75c5.02-1.39,7.93,7.45,2.24,9.03-5.02,1.39-7.93-7.45-2.24-9.03Z"/>
      <path class="cls-110" d="M224.5,228.52c-.52-4.19-.1-6.56,3.39-9.02l3.39,5.62-6.77,3.4Z"/>
      <path class="cls-19" d="M292.27,266.92c7.27.47,14.47,5.89,12.88,14.02,4.02,1.11,6.15,1.96,4.47,5.92l-12.83,13.95c2.05,4.89-1.71,9.41-11.3,13.55-.66.2-1.51-.17-2.26,0-7.12.03-14.59-4.04-15.81-11.3l-8.83-1.37c-10.11-11.56-21.58-17.1-34.41-16.62l-4.2-4.6c-5.73,1.67-6.21-.1-2.26-4.52,3.38-1.43,7.14-2.18,11.3-2.26,21.17-1.88,42.42-3.36,63.25-6.78Z"/>
      <path class="cls-29" d="M339.71,257.89c6.39-1.41,8.65-.66,6.78,2.26-3.46,1.44-4.46,2.97-6.78,4.52l-1.71,6.66c-12.31,10.93-25.29,20.76-38.96,29.49-.64,1.97-1.4,1.94-2.26,0,.28-.37-.02-2.68,1.1-4.46,2.49-3.93,8.47-6.62,10.19-11.35-13.68,4.47-6.33-3.74-7.06-7.64-.57-3.04-7.84-6.45-8.75-10.44,14.73-2.42,32.83-5.8,47.44-9.04Z"/>
      <path class="cls-17" d="M405.22,242.07c-5.13,1.14-13.73,6.09-20.28,7.96-5.08,1.45-11.34,1.96-15.87,3.33-4.82,1.15-6.33.4-4.52-2.26,2.98-.8,6.07-1.42,9.04-2.26,3.22-.91,7.24-3.96,9.04-4.52,6.82-5.92,12.09-7.43,15.81-4.52,1.77-.25,3.62-.1,5.38.23l1.39,2.03Z"/>
      <path class="cls-10" d="M346.49,233.04c9.24-4.03,13.58-2.11,17.88,6.31,7.94-.32,18.2,2.63,9.23,9.5-1.58,3.2-5.94,3.69-9.04,2.26-6,5.15-16.59,6.7-24.85,6.78-9.42,9.49-35.19,14.41-47.44,9.04-16.95,10.11-44.36,12.38-63.25,6.78l-14.72,1.19c-3.17.57-2.78-2.09,1.17-7.97-7.01-1.4-25.17-4.56-24.85,4.52,4.8,2.34,2,3.39-2.26,4.52-.44,2.03-1.21,1.95-2.26,0-7.83,1.18-22.7,3.35-22.59-6.78-.71-4.06.8-8.58,4.52-13.55,1.09-.64,3.81-2.29,4.52-2.26,1.39.06,4.26,2.29,7.79,2.35,30.86.55,61.29-4.3,91.61-9.13,11.49-1.83,23.18-4.88,33.89-6.78.49-1.84,1.36-3.53,3-4.58s37.06-8.89,37.67-2.19Z"/>
      <path class="cls-25" d="M163.5,269.18c6.88,6.81,16.01,1.96,22.59,6.78,1.67,4.03-6.15,7.31-9.04,4.52-9.55,1.19-19.42-4.25-18.16-14.81.37-3.07,2.15-2.94,2.34-3.27,1.64.49,2.39,2.75,2.26,6.78Z"/>
      <path class="cls-33" d="M163.5,269.18c-2.21-2.19-3-2.74-2.26-6.78,2.18-3.68,3.07-4.61,6.78-6.78,5,5.7-5.19,6.82-4.52,13.55Z"/>
      <path class="cls-103" d="M215.46,266.92c.31,10.86-18.88,9.77-24.85,4.52-1.2-.34-3.09.26-4.52,0l.03-6.71c7.24-3.18,27.11-8.61,29.34,2.19Z"/>
      <path class="cls-70" d="M338.88,237.86c13.29-3.98,17.43,9.13,3.86,12.95-9.31-.28-13.59-10.04-3.86-12.95Z"/>
      <path class="cls-20" d="M215.46,266.92c.41,1.97-.3,4.62,0,6.78h13.56c-1.52.13-6.1,1.97-11.3,2.25-4.77,7.04-19.69,6.49-24.85,0-1.49.09-3.14-.21-4.52,0l2.26-4.52c9.51,2.69,18.7,5.18,24.85-4.52Z"/>
      <path class="cls-53" d="M364.56,251.11l1.33,1.98,3.19.28c-6.61,2-15.83,3.95-22.59,6.78l-1.45-1.97-5.33-.29c7.09-1.57,16.8-4.62,24.85-6.78Z"/>
      <path class="cls-78" d="M339.71,264.66l11.29-2.27c-1.79,10.95,7.59,9.23,10.89,11.73,1.12.85,1.1,5.68,3.97,6.27l38.27-11.19-3.43,6.76c-7.91,3.08-17.16,6.82-24.85,9.04-7.34,8.17-23.08,10-33.89,9.04-.57,1.34-1.21,2.43-2.06,2.65-7.14,1.81-30.05,6.84-36.38,7.43l-4.48-3.3c11.11-13.11,26.31-26.6,40.66-36.15Z"/>
      <path class="cls-47" d="M238.05,169.78h4.51s0,2.25,0,2.25c-5.24-1.11-3.74,4.93-8.65,4.9l-.39,4.15c-.41,2.83-2.67,5.09-6.78,6.78l6.79,2.27c-2.19,5.64-6.27,18.23-12.76,20.11-4.28,1.24-10.34-2.29-17.34.64-4.6,1.92-4.97,7.14-11.71,6.48-4.34-.42-10-7.54-12.42-11.42,15.22-21.94,34.27-29.02,58.74-36.15Z"/>
      <polygon class="cls-96" points="233.53 181.08 235.79 187.85 226.76 187.86 226.81 183.44 233.53 181.08"/>
      <path class="cls-2" d="M208.68,201.41c2.95,13.93-12.76,3.73-9.03,0h9.03Z"/>
      <path class="cls-34" d="M217.72,289.51c4.2-.71,6.73,1.98,7.58,8.07,10.84,2.61,9.78,8.66-.8,10-1.09.11-3.2,2-5.64,2.18-7.87.57-15.87-.23-23.73.08-5.23-1.39-12.66-2.3-15.81-6.78h13.55s-2.26-6.77-2.26-6.77c3.23-.77,5.27,2.06,8,2.35,5.09.53,16.02-5.14,19.11-9.13Z"/>
      <path class="cls-30" d="M375.86,285l2.26,2.26c-5.11,1.99-8.89,9.86-12.73,10.98-3.59,1.05-8.24.11-12.12.31-.75.04-1.51-.04-2.26,0-6.58-.22-9.59-1.73-9.04-4.52,5.66-2.39,11.58-4.56,17.52-6.2,5.29-1.46,12.23-1.65,16.36-2.84Z"/>
      <path class="cls-39" d="M217.72,275.96c.45,1.43,2.15,3.29,2.26,4.52,2.07.4,1.99,1.17,0,2.26-1.45.48-3.22,2.09-4.52,2.26-8.34,5.91-21.14,10.53-24.85-2.26.02-.73-.12-1.56,0-2.26.04-.25,3.3-2.18,2.26-4.52,8.21-.5,16.64.45,24.85,0Z"/>
      <path class="cls-50" d="M215.46,285c-5.36,9.11-12.16,12.96-22.28,8.73-1.45-3.74-2.66-6.83-2.57-10.99,7.84,6.07,9.92,3.21,17.14,2.35,2.67-.32,5.38.21,7.71-.09Z"/>
      <path class="cls-10" d="M393.93,217.22h9.04s0,18.07,0,18.07c-1.22.91-1.55,1.59-2.26,2.26-.62.58-2.17.73-2.26,2.26-2.6.37-12.28,3.43-15.81,4.52l-1.28-2.39c12.39-2.83,19.19-12.82,12.57-24.72Z"/>
      <path class="cls-93" d="M267.42,303.07c.47.35,2.86-.1,4.44,1.13,3.92,3.05,7.32,7.2,11.37,10.17-8.98,2-13.08,1.9-22.59,2.26-6.17.23-17.61-.97-22.59,2.26,3.35-3.87.9-6.96,0-11.3-.94-10.99,21.85-7.12,29.37-4.52Z"/>
      <path class="cls-93" d="M341.97,294.03c.57.09,5.92,3.66,8.93,3.33l.11,1.19c-26.6,1.44-41.41,8.47-65.51,15.81,3.29-4.97,7.67-8.79,11.3-13.55h2.26c13.87-2.99,28.5-9.06,42.92-6.78Z"/>
      <path class="cls-46" d="M267.42,303.07c-7.91,3.44-15.7,1.52-23.73,2.34-2.44.25-4.53,2.06-5.64,2.18-4.34.48-9.18-.43-13.55,0l6.77-4.51-8.9-.14-4.65-13.42c1.49-1.93,2.09-4.35,2.26-6.78.05-.72.06-1.54,0-2.26,5.2.54,11.7-1.05,16.59.36,8.99,2.6,23.53,16.71,30.85,22.23Z"/>
    </g>
    <path class="cls-5" d="M476.7,438.93c-4.85,1.4-5.53,7.99-6.21,8.47-1.33.95-8.16-.05-11.73.7-16.8,3.57-25.34,17.35-18.6,33.52,6.98,16.73,39.11,23.98,53.09,14.52,24.23-16.4,16.27-66.72-16.55-57.22ZM467.37,490.55c-6.82-1.01-22.37-11.28-21.2-18.82.88-5.67,10.92-14.77,16.75-15.14,4.25-.27,7.9,3.25,12.32,2.37,2.62-20.52,20.4-10.84,22.52,5.71,2.81,21.89-10.19,28.86-30.39,25.88Z"/>
    <path class="cls-122" d="M768.46,493.32c-4.84-4.62-27.69-10.12-33.52-6.24-4.17,2.78-3.06,27.94,1.25,32.86,6.09,6.95,24.9,6.25,31.7.09,7.41-6.71,7.57-20.01.57-26.71ZM744.21,515.3c-3.62-7.07.79-12.62-.12-20.21,8.26.03,15.7,3.5,20.15,10.43.41,11.62-11.31,10.51-20.03,9.78Z"/>
    <path class="cls-41" d="M542.36,484.11c-14.6,2.45-33.93,12.88-23.87,29.87,7.57,12.78,31.69,9.18,33.61-4.16,1.14-7.94,2.08-27.69-9.74-25.71ZM542.88,510.76c-6.72,5.16-22.66-.62-16.89-8.99,1.53-2.22,15.29-8.43,17.04-6.68l-.14,15.66Z"/>
    <path class="cls-54" d="M846.37,443.64c-5.13-2.2-14.22-2.22-16.55-3.78-1.72-1.16-2.28-4.94-4.42-6.88-4.64-4.2-12.81-3.95-18.74-2.93-11.86,2.03-15.74,6.25-19.05,17.08-7.56,24.69-2.59,49.17,25.83,54.27,16.44,2.95,39.35-7.38,46.35-22.76,6.23-13.69.3-29.11-13.42-35ZM852.15,473.26c-3.12,10.48-26.25,20.77-36.41,19.21-28.32-4.36-24.51-32.66-13.78-51.71,16.44-10.16,19.13,10.07,24.84,11.19,2.02.39,5.27-2.34,8.69-2.15,1.48.08,11.12,4.24,12.03,5.12,4,3.81,6.26,12.84,4.62,18.35Z"/>
    <g>
      <path class="cls-79" d="M1060.36,788.77c-25.34,60-93.95,86.67-152.11,53.84-5.56-3.14-20.5-16.73-23.22-17.52-5.45-1.59-12.08,5.1-8.86,11.19,3.38,6.39,24.03,19.47,31.25,22.97,16.93,8.21,37.16,12.51,55.8,13.11l-9.05,81.33c-29.4-6.26-58.11-15.76-87.54-22.02-104.8-22.3-214.46-25.4-320.08-7.2-27.02,4.66-53.54,12.36-80.34,17.93l-24.85-119.73c1.58-1.38,25.88,7.52,31,8.53,4.05.8,16.48,2.94,19.83,2.94,2.01,0,17.98-2.91,19.25-3.52,9.89-4.77,3.31-16.22-10.13-14.66-9.73,1.13-8.75.95-18.23,0-102.33-10.31-129.18-143.35-49.66-203.43,62.13-46.94,157.49,1.29,165.99,75.81.83,7.25-2.68,21.17,4.55,24.81,5.14,2.58,10.57,1.71,11.42-4.51,4.43-32.6-19.27-79.92-44.08-100.62-12.53-10.46-23.92-14-38.05-20.68-2.35-1.11-4.12-2.28-3.87-5.25,23.8-54.3,81.65-79.16,138.53-61.63,84.64,26.09,105.31,151.29,33.2,201.61-5.82,4.06-21.98,7.36-16.94,17.07,5.59,10.78,25.01-3.71,31.72-9.07,36.45-29.15,50.37-82.42,41.26-127.15-2.62-12.87-9.04-24.7-10.76-37.76,5.16-.56,9.65-3.57,14.73-4.48,107.98-19.38,164.22,113.61,92.62,192.02-3.63,3.97-14.93,11.49-15.94,13.42-4.98,9.5,4.29,14.48,12.55,10.29,2.1-1.07,17.74-17.27,20.31-20.35,21.66-25.95,33.1-61.79,29.37-95.01-1.23-10.93,12.86-17.17,21.93-20.86,56.42-22.98,119.84,6.6,140.69,62.75-.2,3.83-2.57,4.78-7.13,2.86-7.12,27.79-5.44,52.6,5.05,74.44l-.18,8.55Z"/>
      <path class="cls-18" d="M1062.62,702.93c10.55,28.41,9.52,57.94-2.26,85.84l-10.78-19.72c-6.93-21.42.79-43.14,1.88-64.87l3.26-3.51,7.91,2.25Z"/>
      <path class="cls-16" d="M1067.03,1429.31c-2.3-19.97-17.87-41.37-20.16-58.89-1.9-14.56-.55-31.4-2.24-47.46-5.88-55.96-21.35-111.18-45.27-161.44h0c-7.07-14.86-14.63-32.7-22.1-46.8-7.53-14.2-18.93-26.46-25.34-41.3l-4.42,17.02c-.14,7.87-.2,15.79-.09,23.63h0c-3.99,2.02-2.1,8.64-2.26,12.42-1.21,27.89-4.39,57.69-6.86,85.76-1.04,11.83-7.03,39.83-6.23,49.41.91,10.88,13.1,39.82,16.54,53.41,6.45,25.46,10.67,49.64,11.59,75.79-9.7,15.81-31,41.31-21.35,60.49,3.92,7.81,15.83,13.61,24.38,12.9-.9,9.33.32,16.49,7.88,22.61,7.26,5.87,10.41,3.45,18.03,4.56,13.86,2.02,21.37,5.38,34-4.57,11.1-8.74,3.02-9.46,19.87-14.01,16.06-4.34,25.83-27.99,24.04-43.54Z"/>
      <path class="cls-60" d="M687.7,1485.61c-2.05-52.77-6.77-112.73-13.56-164.9-.61-4.67,1.57-13.3-2.23-15.84l-113.07-7.8c.46,11.64-.58,23.46-.08,35.11.5,11.74,2.25,23.16,2.36,36.05.03,3.73-1.65,10.47,2.25,12.43-.82,9.41-.08,20.78,0,30.49.03,3.73-1.66,10.47,2.25,12.43,0,7.5-.02,15.07.02,22.57,21.03,1.21,39.14,12.83,56.33,23.87l9.16,8.9-10.16,10c-37.85-31.8-98.09-46.91-128.09,3.11-11.45,19.08-13.17,38.61-15.37,60.32,3.32.15,6.76-.4,10.09.09,53.98,7.95,110.59,10.17,164.9,2.09,4.91-.73,32.8-6.94,34.11-8.81,1.16-19.53,1.86-40.3,1.09-60.09Z"/>
      <path class="cls-57" d="M891.01,1533.05c-6.25-68.09-14.63-135.72-22.59-203.32-1.15-9.72,1.16-20.62-4.47-29.41-18.02-1.18-37.29-1.84-55.57-1.09-14.77.6-32.35,3.36-47.26,4.7-5.46.49-11.49-.51-17.04-.09l13.57,173.95c13.23-11.05,32.52-19.17,49.7-13.55l-2.29,13.54c-23.35-2.19-47.85,12.62-57.63,33.86-4.51,9.78-10.45,38.58-7.64,48.39,1.67,5.82,20.76,3.51,26.89,3.61,14.62-1.76,30.75-2.16,45.18,0,19.59-.62,42.5-2.61,61.61-7.29,6.53-1.6,12.93-5.05,19.57-6.42,1.98-6.04-1.57-11.88-2.03-16.88Z"/>
      <path class="cls-7" d="M811.86,1563.63c-14.92.47-30.25.26-45.18,0,4.29-4.11,13.49-2.24,19.2-2.26,4.51-.01,9.03-.03,13.55,0,3.74.03,10.47-1.66,12.43,2.25Z"/>
      <path class="cls-107" d="M530.53,1048.63c-2.24-3.29-8.54-8.43-12.36-9.1-4.3-1.8-13.56-2.6-15.81,0-.71-1.28-.71-2.79,0-4.52h18.08c2.7-18.41-10.44-39.46-30.52-38.56-11.11.5-19.9,8.13-30.48,9.19,8.63-8.05,17.03-13.48,29.22-15.97,1.92-14.36-2.86-29.4-19.07-29.35-24.22.07-31.96,26.42-37.26,45.31-7.34,26.18-7.4,49.64-7.17,77.54-15.61,25.66-36.17,51.72-46.55,79.96-12.71,34.57-20.71,96.59,22.04,112.51,22.63,8.43,50.79-3.82,70.85-15.1,7.32-4.12,13.97-9.86,21.56-13.45l-6.52-67.51-32.72,33.92c-1.93,2.36-6.05,2.92-7.94,4.49-4.03,4.07-4.03,3.32,0-2.26,24.22-39.82,58.82-84.93,61-133.29,22.16,3.67,37.05-14.19,23.65-33.82Z"/>
      <path class="cls-48" d="M518.18,1039.53c-3.75-.66-11.68-.35-15.81,0-2.91.25-4.3,1.37-6.77,2.26-2.68-3.53,5.03-7.09,6.77-6.78.2.04.79,2.05,3.31,2.25,3.71.29,7.45-.44,11.14.29l1.36,1.98Z"/>
      <path class="cls-38" d="M716.98,928.83c-4.29,4.11-13.48,2.23-19.2,2.26-6.02.03-12.05.05-18.07,0-3.74-.03-10.47,1.66-12.43-2.25,16.48-.25,33.22-.34,49.7,0Z"/>
      <path class="cls-95" d="M869.46,996.62c6.11,3.2,4.26,20.05-2.25,18.05-6.27-1.92-3.81-15.57,2.25-18.05Z"/>
      <path class="cls-79" d="M945.08,967.31c-4.47-.65-9.07-1.45-13.49-2.33-11.97-2.38-22.92-5.83-33.89-9.04h0,0c-11.83-3.46-23.47-6.3-36.15-9.04-16.54-3.58-35.11-8.92-51.96-9.04l-39.62-6.69c-17.85-1.09-35.03-1.98-53-2.35-16.06,1.78-33.86,2.4-49.7,0-26.6.4-53.25,1.1-80.12,4.59l-100.61,18c3.93,6.01,10.12,10.66,13.05,17.44,2.26,5.23,2.14,13.98,3.79,16.55,2.72,4.24,16.74,6.6,23.49,19.43,5.93,11.28,2.68,17.87,5.17,26.46.94,3.23,7.5,7.11,9.79,10.54,2.58,3.87,2.44,8.57,5.71,11.23-.31,11.6.95,25.25-9.04,33.89-4.04,3.5-17.87,6.77-19.35,8.89-1.64,17.11-7.37,33.46-14.1,49.16-2.33,5.45-7.47,9.88-7.41,15.36,3.38,24,6.67,48.46,9.14,72.38,1.35,13.06-2.51,19.6,6.83,31.58,9.83,12.59,28.1,14.42,42.96,14.65.5.1.99.19,1.47.27l22.34,4.16c22.65-.93,46.36,6.1,68.81,4.61,6.31.42,13.05-.59,19.29-.09,61.96,4.95,124.06.28,185.24-6.6,16.39-1.84,34.89-.11,49.29-9.45,8.35-5.41,15.93-15.67,17.2-25.72,1.77-14.06,1.05-30.87,2.42-45.02,7.01-72.67,15.01-145.72,20.33-219.13.31-4.27,3.82-9.42,2.11-14.7Z"/>
      <circle class="cls-115" cx="776.14" cy="1086.75" r="77.98"/>
      <circle class="cls-115" cx="633.59" cy="1082.56" r="77.98"/>
      <path class="cls-125" d="M747.59,971.97s40.71-16.03,83.05,19.19"/>
      <path class="cls-125" d="M650.36,971.13s-40.71-16.03-83.05,19.19"/>
      <circle class="cls-35" cx="654.14" cy="1043.57" r="22.22"/>
      <circle class="cls-35" cx="782.43" cy="1050.28" r="22.22"/>
      <ellipse class="cls-123" cx="701.48" cy="1212.79" rx="28.93" ry="37.31"/>
    </g>
  </g>
</svg>